<?xml version="1.0" encoding="utf-8"?>
<!-- Generator: Adobe Illustrator 16.0.0, SVG Export Plug-In . SVG Version: 6.00 Build 0)  -->
<!DOCTYPE svg PUBLIC "-//W3C//DTD SVG 1.1//EN" "http://www.w3.org/Graphics/SVG/1.1/DTD/svg11.dtd">
<svg version="1.1" id="Layer_1" xmlns="http://www.w3.org/2000/svg" xmlns:xlink="http://www.w3.org/1999/xlink" x="0px" y="0px"
	 width="392px" height="564px" viewBox="103 135 392 564" enable-background="new 103 135 392 564" xml:space="preserve">
<polygon fill="#7DD775" fill-opacity="0.502" points="309,648 139,520 463,532 "/>
<polygon fill="#77C171" fill-opacity="0.502" points="412,243 141,328 297,140 "/>
<polygon fill="#3F473A" fill-opacity="0.502" points="232,558 171,375 121,591 "/>
<polygon fill="#787B8B" fill-opacity="0.502" points="234,594 309,636 392,590 "/>
<polygon fill="#036300" fill-opacity="0.502" points="204,541 442,512 232,224 "/>
<polygon fill="#3F513E" fill-opacity="0.502" points="352,248 398,295 470,203 "/>
<polygon fill="#515B54" fill-opacity="0.502" points="492,578 424,281 422,556 "/>
<polygon fill="#C2C784" fill-opacity="0.502" points="245,253 345,272 335,230 "/>
<polygon fill="#777169" fill-opacity="0.502" points="389,264 474,355 471,319 "/>
<polygon fill="#3D8933" fill-opacity="0.502" points="184,287 380,289 305,318 "/>
<polygon fill="#A4FA94" fill-opacity="0.502" points="235,550 249,582 371,524 "/>
<polygon fill="#72938A" fill-opacity="0.502" points="405,244 259,171 329,160 "/>
<polygon fill="#98E891" fill-opacity="0.502" points="380,552 316,531 353,575 "/>
<polygon fill="#044C00" fill-opacity="0.502" points="421,298 310,543 197,304 "/>
<polygon fill="#074500" fill-opacity="0.502" points="419,518 349,524 390,565 "/>
<polygon fill="#685159" fill-opacity="0.502" points="156,598 159,665 207,697 "/>
<polygon fill="#8B6F4A" fill-opacity="0.502" points="149,631 140,567 128,565 "/>
<polygon fill="#18B30D" fill-opacity="0.502" points="393,586 243,588 286,553 "/>
<polygon fill="#F0D55B" fill-opacity="0.502" points="159,661 161,659 177,677 "/>
<polygon fill="#647356" fill-opacity="0.502" points="135,547 179,597 143,499 "/>
<polygon fill="#675556" fill-opacity="0.502" points="108,346 104,453 153,298 "/>
<polygon fill="#93AC67" fill-opacity="0.502" points="258,247 304,231 282,277 "/>
<polygon fill="#5EA372" fill-opacity="0.502" points="277,178 333,191 195,250 "/>
<polygon fill-opacity="0.502" points="414,572 456,552 440,508 "/>
<polygon fill="#434248" fill-opacity="0.502" points="218,227 176,443 171,292 "/>
<polygon fill="#0E000E" fill-opacity="0.502" points="277,158 296,141 350,164 "/>
<polygon fill="#75908F" fill-opacity="0.502" points="417,282 434,308 442,407 "/>
<polygon fill="#060004" fill-opacity="0.502" points="205,276 170,299 194,243 "/>
<polygon fill="#D7AE77" fill-opacity="0.502" points="449,432 449,402 453,420 "/>
<polygon fill="#258A28" fill-opacity="0.502" points="325,185 250,222 381,248 "/>
<polygon fill="#130A14" fill-opacity="0.502" points="167,528 228,641 181,516 "/>
<polygon fill="#5E4C4A" fill-opacity="0.502" points="469,652 490,548 410,699 "/>
<polygon fill="#657A5C" fill-opacity="0.502" points="127,163 148,211 225,257 "/>
<polygon fill="#616F47" fill-opacity="0.502" points="181,240 148,222 188,211 "/>
<polygon fill="#2F5249" fill-opacity="0.502" points="303,614 288,606 336,606 "/>
<polygon fill="#9B7266" fill-opacity="0.502" points="130,339 145,320 156,327 "/>
<polygon fill="#317D1B" fill-opacity="0.502" points="282,460 384,534 217,531 "/>
<polygon fill="#857CC5" fill-opacity="0.502" points="160,616 156,583 151,563 "/>
<polygon fill="#072709" fill-opacity="0.502" points="230,310 222,562 178,451 "/>
<polygon fill="#1F001D" fill-opacity="0.502" points="302,278 215,268 270,292 "/>
<polygon fill="#024300" fill-opacity="0.502" points="393,255 352,280 345,228 "/>
<polygon fill="#91D386" fill-opacity="0.502" points="234,570 270,528 362,550 "/>
<polygon fill="#59736E" fill-opacity="0.502" points="428,543 409,529 445,446 "/>
<polygon fill="#75817E" fill-opacity="0.502" points="206,257 174,365 214,260 "/>
<polygon fill="#5E7E6E" fill-opacity="0.502" points="414,275 386,254 407,241 "/>
<polygon fill="#54855D" fill-opacity="0.502" points="171,223 199,239 187,212 "/>
<polygon fill="#2B6F29" fill-opacity="0.502" points="221,246 272,331 194,311 "/>
<polygon fill="#81BD77" fill-opacity="0.502" points="378,565 379,535 308,544 "/>
<polygon fill="#272124" fill-opacity="0.502" points="296,322 309,362 337,310 "/>
<polygon fill="#7C3D3D" fill-opacity="0.502" points="230,162 257,177 230,200 "/>
<polygon fill="#715656" fill-opacity="0.502" points="489,151 468,183 480,192 "/>
<polygon fill="#625250" fill-opacity="0.502" points="493,420 454,323 488,338 "/>
<polygon fill="#5D7771" fill-opacity="0.502" points="174,447 198,298 183,323 "/>
<polygon fill="#9AAC78" fill-opacity="0.502" points="281,242 349,245 337,276 "/>
<polygon fill="#727570" fill-opacity="0.502" points="291,159 233,247 217,231 "/>
<polygon fill="#208C16" fill-opacity="0.502" points="236,259 320,281 373,267 "/>
<polygon fill="#44B140" fill-opacity="0.502" points="342,553 376,578 258,555 "/>
<polygon fill="#086610" fill-opacity="0.502" points="406,283 347,299 423,298 "/>
<polygon fill="#8B785F" fill-opacity="0.502" points="156,464 150,462 171,428 "/>
<polygon fill="#829063" fill-opacity="0.502" points="199,526 182,520 175,483 "/>
<polygon fill="#504747" fill-opacity="0.502" points="475,201 491,158 437,225 "/>
<polygon fill="#122D15" fill-opacity="0.502" points="437,415 361,528 405,551 "/>
<polygon fill="#299827" fill-opacity="0.502" points="281,548 291,594 334,595 "/>
<polygon fill="#6BAA5E" fill-opacity="0.502" points="361,294 257,300 359,298 "/>
<polygon fill="#083107" fill-opacity="0.502" points="192,365 201,296 291,448 "/>
<polygon fill="#42AA56" fill-opacity="0.502" points="297,184 246,230 339,195 "/>
<polygon fill="#5E675D" fill-opacity="0.502" points="488,354 483,413 491,398 "/>
<polygon fill="#140114" fill-opacity="0.502" points="451,542 435,525 411,574 "/>
<polygon fill="#0B270C" fill-opacity="0.502" points="302,451 432,497 419,296 "/>
<polygon fill="#607C7A" fill-opacity="0.502" points="439,488 445,430 434,337 "/>
<polygon fill="#99796D" fill-opacity="0.502" points="495,462 492,405 486,443 "/>
<polygon fill="#463C42" fill-opacity="0.502" points="112,334 188,316 157,296 "/>
<polygon fill="#18091A" fill-opacity="0.502" points="141,188 181,213 166,183 "/>
<polygon fill="#AB8761" fill-opacity="0.502" points="110,449 103,450 110,388 "/>
<polygon fill="#506971" fill-opacity="0.502" points="158,552 170,543 170,468 "/>
<polygon fill="#FFEA84" fill-opacity="0.502" points="153,636 161,660 146,623 "/>
<polygon fill="#718073" fill-opacity="0.502" points="180,515 207,572 261,597 "/>
<polygon fill="#72796F" fill-opacity="0.502" points="419,227 401,257 445,217 "/>
<polygon fill="#29641D" fill-opacity="0.502" points="303,212 353,253 367,235 "/>
<polygon fill="#2F0C28" fill-opacity="0.502" points="244,269 182,279 274,284 "/>
<polygon fill="#9C8575" fill-opacity="0.502" points="472,344 450,318 425,304 "/>
<polygon fill="#813D3A" fill-opacity="0.502" points="346,169 376,191 368,156 "/>
<polygon fill="#738281" fill-opacity="0.502" points="276,165 322,163 392,227 "/>
<polygon fill="#727262" fill-opacity="0.502" points="467,322 490,341 471,332 "/>
<polygon fill="#110412" fill-opacity="0.502" points="301,655 326,631 348,618 "/>
<polygon fill="#296818" fill-opacity="0.502" points="394,526 363,502 365,549 "/>
<polygon fill="#1C101E" fill-opacity="0.502" points="316,318 308,370 311,484 "/>
<polygon fill="#6B734F" fill-opacity="0.502" points="478,548 469,515 441,586 "/>
<polygon fill="#BF7171" fill-opacity="0.502" points="204,694 216,687 182,682 "/>
<polygon fill="#76A653" fill-opacity="0.502" points="322,542 351,523 319,528 "/>
<polygon fill="#B29169" fill-opacity="0.502" points="139,309 136,317 140,317 "/>
<polygon fill="#EFBCAD" fill-opacity="0.502" points="293,628 270,618 249,603 "/>
<polygon fill="#7A6960" fill-opacity="0.502" points="327,162 353,181 362,212 "/>
<polygon fill="#86615E" fill-opacity="0.502" points="435,657 406,682 442,681 "/>
<polygon fill="#1C1C1C" fill-opacity="0.502" points="467,541 462,652 478,594 "/>
<polygon fill="#886A5F" fill-opacity="0.502" points="126,138 130,174 142,143 "/>
<polygon fill="#4D5346" fill-opacity="0.502" points="275,304 343,285 272,281 "/>
<polygon fill="#435B40" fill-opacity="0.502" points="130,531 163,572 155,498 "/>
<polygon fill="#0E440C" fill-opacity="0.502" points="239,575 196,522 224,521 "/>
<polygon fill="#628F3B" fill-opacity="0.502" points="298,243 281,227 331,232 "/>
<polygon fill="#1E2419" fill-opacity="0.502" points="111,385 107,437 113,414 "/>
<polygon fill="#50B43F" fill-opacity="0.502" points="146,543 153,490 149,508 "/>
<polygon fill="#E8D060" fill-opacity="0.502" points="452,668 460,658 437,674 "/>
<polygon fill="#997956" fill-opacity="0.502" points="170,430 159,419 172,373 "/>
<polygon fill="#AB62A7" fill-opacity="0.502" points="413,681 419,677 400,675 "/>
<polygon fill="#779083" fill-opacity="0.502" points="279,187 222,225 324,173 "/>
<polygon fill="#288D1B" fill-opacity="0.502" points="255,577 248,585 218,552 "/>
<polygon fill="#458742" fill-opacity="0.502" points="223,265 241,294 207,310 "/>
<polygon fill="#B1AB7E" fill-opacity="0.502" points="444,372 443,359 446,388 "/>
<polygon fill="#6A8059" fill-opacity="0.502" points="148,308 210,284 155,300 "/>
<polygon fill="#1F3529" fill-opacity="0.502" points="148,534 157,472 156,529 "/>
<polygon fill="#550C00" fill-opacity="0.502" points="198,690 210,690 186,681 "/>
<polygon fill="#38613A" fill-opacity="0.502" points="356,210 421,291 350,225 "/>
<polygon fill="#987772" fill-opacity="0.502" points="205,282 237,274 228,272 "/>
<polygon fill="#837C7E" fill-opacity="0.502" points="150,317 172,306 119,357 "/>
<polygon fill="#A4F8AD" fill-opacity="0.502" points="324,540 298,543 306,566 "/>
<polygon fill="#181019" fill-opacity="0.502" points="442,521 454,561 382,617 "/>
<polygon fill="#364121" fill-opacity="0.502" points="196,256 212,248 183,242 "/>
<polygon fill="#727C82" fill-opacity="0.502" points="144,319 182,303 161,320 "/>
<polygon fill="#F9F88D" fill-opacity="0.502" points="174,369 172,384 179,335 "/>
<polygon fill="#8D7E7F" fill-opacity="0.502" points="173,629 157,630 171,625 "/>
<polygon fill="#6A5773" fill-opacity="0.502" points="463,609 466,557 451,646 "/>
<polygon fill="#5D5D7B" fill-opacity="0.502" points="480,367 483,383 478,377 "/>
<polygon fill="#0E6A03" fill-opacity="0.502" points="277,297 310,325 319,301 "/>
<polygon fill="#6B7174" fill-opacity="0.502" points="406,576 433,512 340,624 "/>
<polygon fill="#548B39" fill-opacity="0.502" points="298,524 226,558 271,515 "/>
<polygon fill="#7E6573" fill-opacity="0.502" points="477,163 485,153 471,188 "/>
<polygon fill="#E19A73" fill-opacity="0.502" points="131,563 125,569 133,579 "/>
<polygon fill="#97FFA6" fill-opacity="0.502" points="281,271 294,276 266,272 "/>
<polygon fill="#0D1317" fill-opacity="0.502" points="410,676 440,671 412,666 "/>
<polygon fill="#B5B044" fill-opacity="0.502" points="192,687 173,668 177,677 "/>
<polygon fill="#377927" fill-opacity="0.502" points="292,212 250,258 218,238 "/>
<polygon fill="#6F4144" fill-opacity="0.502" points="259,202 252,171 271,172 "/>
<polygon fill="#150A16" fill-opacity="0.502" points="124,536 131,562 138,535 "/>
<polygon fill="#627C7E" fill-opacity="0.502" points="175,431 179,485 190,522 "/>
<polygon fill="#76653C" fill-opacity="0.502" points="139,580 156,644 142,610 "/>
<polygon fill="#D6B374" fill-opacity="0.502" points="459,565 436,591 461,566 "/>
<polygon fill="#2EA522" fill-opacity="0.502" points="285,600 273,576 254,573 "/>
<polygon fill="#593336" fill-opacity="0.502" points="452,238 423,252 460,210 "/>
<polygon fill="#AC975E" fill-opacity="0.502" points="476,602 477,606 474,628 "/>
<polygon fill="#C1CB4A" fill-opacity="0.502" points="417,561 376,599 396,584 "/>
<polygon fill="#1A191E" fill-opacity="0.502" points="106,557 141,605 139,586 "/>
<polygon fill="#91D090" fill-opacity="0.502" points="239,560 273,550 286,569 "/>
<polygon fill="#42AB4E" fill-opacity="0.502" points="140,557 139,577 151,536 "/>
<polygon fill="#B29B84" fill-opacity="0.502" points="290,632 363,608 330,626 "/>
<polygon fill="#1B5E0D" fill-opacity="0.502" points="287,301 313,364 197,310 "/>
<polygon fill="#576194" fill-opacity="0.502" points="485,432 481,372 488,438 "/>
<polygon fill="#29591E" fill-opacity="0.502" points="336,545 330,548 323,546 "/>
<polygon fill="#004C00" fill-opacity="0.502" points="404,514 370,582 388,566 "/>
<polygon fill="#369B3E" fill-opacity="0.502" points="312,194 281,218 336,212 "/>
<polygon fill="#856051" fill-opacity="0.502" points="477,537 477,520 483,515 "/>
<polygon fill="#0A3307" fill-opacity="0.502" points="212,356 259,334 242,479 "/>
<polygon fill="#44463B" fill-opacity="0.502" points="438,333 425,290 458,304 "/>
<polygon fill="#053C00" fill-opacity="0.502" points="194,240 204,247 160,207 "/>
<polygon fill="#115906" fill-opacity="0.502" points="359,494 240,432 332,524 "/>
<polygon fill="#616CF4" fill-opacity="0.502" points="111,446 112,436 118,392 "/>
<polygon fill="#1B191B" fill-opacity="0.502" points="348,652 278,622 198,679 "/>
<polygon fill="#996E5D" fill-opacity="0.502" points="466,365 470,342 462,331 "/>
<polygon fill="#1A9617" fill-opacity="0.502" points="361,575 318,560 291,591 "/>
<polygon fill="#140815" fill-opacity="0.502" points="421,275 389,276 439,288 "/>
<polygon fill="#5B7372" fill-opacity="0.502" points="189,519 268,614 205,560 "/>
<polygon fill="#2F4C3D" fill-opacity="0.502" points="396,563 441,424 430,508 "/>
<polygon fill="#5A7AE3" fill-opacity="0.502" points="180,665 163,639 170,654 "/>
<polygon fill="#996BFF" fill-opacity="0.502" points="196,683 197,685 213,688 "/>
<polygon fill="#E7C96B" fill-opacity="0.502" points="177,495 172,470 187,531 "/>
<polygon fill="#332C2F" fill-opacity="0.502" points="319,278 391,285 313,298 "/>
<polygon fill="#1E1C20" fill-opacity="0.502" points="143,624 127,638 149,608 "/>
<polygon fill="#2E732B" fill-opacity="0.502" points="290,221 330,211 312,240 "/>
<polygon fill="#19191B" fill-opacity="0.502" points="108,467 107,441 106,537 "/>
<polygon fill="#889389" fill-opacity="0.502" points="286,626 348,620 261,613 "/>
<polygon fill="#279318" fill-opacity="0.502" points="354,591 383,556 379,579 "/>
<polygon fill="#986A52" fill-opacity="0.502" points="154,211 161,205 138,208 "/>
<polygon fill="#96C67D" fill-opacity="0.502" points="304,534 263,539 295,556 "/>
<polygon fill="#9291D9" fill-opacity="0.502" points="460,552 450,567 438,588 "/>
<polygon fill="#746949" fill-opacity="0.502" points="489,361 483,349 490,375 "/>
<polygon fill="#86C685" fill-opacity="0.502" points="232,289 257,288 300,298 "/>
<polygon fill="#0C3C0B" fill-opacity="0.502" points="360,241 340,271 397,267 "/>
<polygon fill="#518653" fill-opacity="0.502" points="279,220 213,242 259,209 "/>
<polygon fill="#319515" fill-opacity="0.502" points="309,486 293,528 307,537 "/>
<polygon fill="#553C43" fill-opacity="0.502" points="159,226 175,237 126,135 "/>
<polygon fill="#187D0D" fill-opacity="0.502" points="333,275 283,280 300,260 "/>
<polygon fill="#0C1E13" fill-opacity="0.502" points="160,651 175,673 188,670 "/>
<polygon fill="#629444" fill-opacity="0.502" points="319,262 259,273 251,255 "/>
<polygon fill="#63595A" fill-opacity="0.502" points="440,218 461,209 462,199 "/>
<polygon fill="#252126" fill-opacity="0.502" points="317,334 286,307 312,349 "/>
<polygon fill="#251E21" fill-opacity="0.502" points="361,290 330,296 376,261 "/>
<polygon fill="#5B709C" fill-opacity="0.502" points="171,495 171,512 165,544 "/>
<polygon fill="#498531" fill-opacity="0.502" points="289,211 287,225 332,253 "/>
<polygon fill="#033E00" fill-opacity="0.502" points="368,284 301,359 375,402 "/>
<polygon fill="#5F4534" fill-opacity="0.502" points="442,219 465,220 462,225 "/>
<polygon fill="#36802E" fill-opacity="0.502" points="272,314 288,291 275,299 "/>
<polygon fill="#114D16" fill-opacity="0.502" points="421,298 425,319 379,284 "/>
<polygon fill="#46B63C" fill-opacity="0.502" points="300,577 267,564 320,559 "/>
<polygon fill="#3A8344" fill-opacity="0.502" points="273,600 293,600 279,583 "/>
<polygon fill="#7C655A" fill-opacity="0.502" points="389,273 390,283 378,278 "/>
<polygon fill="#1A1E1E" fill-opacity="0.502" points="382,260 330,283 397,269 "/>
<polygon fill="#38585A" fill-opacity="0.502" points="304,595 312,579 313,594 "/>
<polygon fill="#2F4100" fill-opacity="0.502" points="182,510 191,534 175,477 "/>
<polygon fill="#206A19" fill-opacity="0.502" points="249,267 215,268 256,229 "/>
<polygon fill="#163915" fill-opacity="0.502" points="181,470 215,551 238,529 "/>
<polygon fill="#7A7A77" fill-opacity="0.502" points="407,247 382,236 386,219 "/>
<polygon fill="#19B217" fill-opacity="0.502" points="328,577 297,567 301,585 "/>
<polygon fill="#A3D8A0" fill-opacity="0.502" points="321,550 324,535 341,535 "/>
<polygon fill="#223329" fill-opacity="0.502" points="425,307 404,382 431,471 "/>
<polygon fill="#496B82" fill-opacity="0.502" points="161,450 171,499 166,486 "/>
<polygon fill="#7AA04D" fill-opacity="0.502" points="251,250 307,237 294,229 "/>
<polygon fill="#636A59" fill-opacity="0.502" points="476,487 462,456 474,512 "/>
<polygon fill="#556A5B" fill-opacity="0.502" points="433,527 449,460 375,601 "/>
<polygon fill="#558F49" fill-opacity="0.502" points="273,551 292,545 290,569 "/>
<polygon fill="#FFFA7D" fill-opacity="0.502" points="155,566 154,567 181,595 "/>
<polygon fill="#393E2D" fill-opacity="0.502" points="174,480 158,451 156,468 "/>
<polygon fill="#296520" fill-opacity="0.502" points="212,547 247,509 232,560 "/>
<polygon fill="#93C487" fill-opacity="0.502" points="236,545 244,564 241,543 "/>
<polygon fill="#296A18" fill-opacity="0.502" points="307,483 241,531 302,522 "/>
<polygon fill="#266C1E" fill-opacity="0.502" points="241,318 218,288 281,302 "/>
<polygon fill="#035701" fill-opacity="0.502" points="255,364 305,410 306,351 "/>
<polygon fill="#1C121D" fill-opacity="0.502" points="258,193 228,194 224,221 "/>
<polygon fill="#48842D" fill-opacity="0.502" points="327,522 346,520 320,540 "/>
<polygon fill="#755A41" fill-opacity="0.502" points="482,350 479,335 489,340 "/>
<polygon fill="#298122" fill-opacity="0.502" points="202,299 211,314 238,304 "/>
<polygon fill="#E4CA8D" fill-opacity="0.502" points="143,499 149,476 148,478 "/>
<polygon fill="#EB977F" fill-opacity="0.502" points="483,558 490,561 490,566 "/>
<polygon fill="#7C7C78" fill-opacity="0.502" points="252,193 273,167 307,162 "/>
<polygon fill="#5A7A71" fill-opacity="0.502" points="395,283 426,284 427,296 "/>
<polygon fill="#9FA47C" fill-opacity="0.502" points="271,244 337,269 353,248 "/>
<polygon fill="#6D82E7" fill-opacity="0.502" points="443,659 456,645 457,639 "/>
<polygon fill="#5F7842" fill-opacity="0.502" points="269,249 250,252 264,240 "/>
<polygon fill="#789652" fill-opacity="0.502" points="470,535 479,586 480,574 "/>
<polygon fill="#387C26" fill-opacity="0.502" points="309,216 262,224 247,252 "/>
<polygon fill="#7FE974" fill-opacity="0.502" points="469,528 471,548 471,525 "/>
<polygon fill="#151018" fill-opacity="0.502" points="176,683 139,630 165,692 "/>
<polygon fill="#388E2F" fill-opacity="0.502" points="363,577 326,553 336,602 "/>
<polygon fill="#140D15" fill-opacity="0.502" points="177,502 195,555 166,535 "/>
<polygon fill="#C1A35E" fill-opacity="0.502" points="113,351 106,398 110,363 "/>
<polygon fill="#0E2B0D" fill-opacity="0.502" points="384,287 350,490 414,514 "/>
<polygon fill="#151715" fill-opacity="0.502" points="195,660 164,640 176,659 "/>
<polygon fill="#0E9A0B" fill-opacity="0.502" points="315,532 310,537 315,493 "/>
<polygon fill="#CB6D8B" fill-opacity="0.502" points="113,436 110,438 109,447 "/>
<polygon fill="#191719" fill-opacity="0.502" points="287,627 348,640 275,662 "/>
<polygon fill="#11440B" fill-opacity="0.502" points="406,538 366,527 383,490 "/>
<polygon fill="#558941" fill-opacity="0.502" points="228,553 237,530 268,548 "/>
<polygon fill="#23221D" fill-opacity="0.502" points="123,337 129,342 106,369 "/>
<polygon fill="#6E867D" fill-opacity="0.502" points="298,161 350,170 265,183 "/>
<polygon fill="#24251D" fill-opacity="0.502" points="294,277 273,276 267,299 "/>
<polygon fill="#0F0713" fill-opacity="0.502" points="248,283 181,274 214,280 "/>
<polygon fill="#7F7768" fill-opacity="0.502" points="463,453 448,427 455,436 "/>
<polygon fill="#779D63" fill-opacity="0.502" points="351,530 328,527 347,537 "/>
<polygon fill="#172318" fill-opacity="0.502" points="492,415 491,428 486,397 "/>
<polygon fill="#12560B" fill-opacity="0.502" points="241,463 328,442 223,529 "/>
<polygon fill="#303D2E" fill-opacity="0.502" points="197,357 173,359 191,351 "/>
<polygon fill="#0F1212" fill-opacity="0.502" points="119,364 118,399 132,344 "/>
<polygon fill="#964949" fill-opacity="0.502" points="266,162 238,197 236,191 "/>
<polygon fill="#16101B" fill-opacity="0.502" points="182,215 173,210 131,168 "/>
<polygon fill="#22272B" fill-opacity="0.502" points="475,344 466,353 492,377 "/>
<polygon fill="#084803" fill-opacity="0.502" points="331,312 364,292 309,492 "/>
<polygon fill="#1A151A" fill-opacity="0.502" points="444,576 455,555 411,568 "/>
<polygon fill="#192C1E" fill-opacity="0.502" points="478,177 475,191 480,195 "/>
<polygon fill="#1C181E" fill-opacity="0.502" points="151,397 175,452 167,464 "/>
<polygon fill="#7388A4" fill-opacity="0.502" points="157,556 167,574 157,558 "/>
<polygon fill="#727255" fill-opacity="0.502" points="130,177 146,199 130,168 "/>
<polygon fill="#1B2126" fill-opacity="0.502" points="177,378 167,396 172,439 "/>
<polygon fill="#458458" fill-opacity="0.502" points="355,205 362,233 311,183 "/>
<polygon fill="#8ED88F" fill-opacity="0.502" points="359,570 354,550 349,563 "/>
<polygon fill="#554431" fill-opacity="0.502" points="132,322 114,355 112,332 "/>
<polygon fill="#8FC586" fill-opacity="0.502" points="288,535 292,556 273,544 "/>
<polygon fill="#73695A" fill-opacity="0.502" points="134,325 138,309 144,310 "/>
<polygon fill="#B8BD8E" fill-opacity="0.502" points="341,259 314,233 326,232 "/>
</svg>
