<?xml version="1.0" encoding="utf-8"?>
<!-- Generator: Adobe Illustrator 16.0.0, SVG Export Plug-In . SVG Version: 6.00 Build 0)  -->
<!DOCTYPE svg PUBLIC "-//W3C//DTD SVG 1.1//EN" "http://www.w3.org/Graphics/SVG/1.1/DTD/svg11.dtd">
<svg version="1.1" id="Layer_1" xmlns="http://www.w3.org/2000/svg" xmlns:xlink="http://www.w3.org/1999/xlink" x="0px" y="0px"
	 width="500px" height="661px" viewBox="0 0 500 661" enable-background="new 0 0 500 661" xml:space="preserve">
<g id="Layer_1_1_" display="none">
</g>
<g id="Layer_2">
	<rect x="1" y="0" display="none" fill="#C2CDCF" width="499" height="660"/>
	<path fill="#FFFEFD" d="M334.799,555.019l-3.676,0.168l-0.693,1.224L334.799,555.019 M387.173,501.094l-5.519,1.139l-0.309,5.889
		L387.173,501.094 M396.412,465.644l-2.943,2.093l3.462,7.487L396.412,465.644 M493.391,396.699l-6.484,4.61l2.303,1.421
		l5.081-5.052L493.391,396.699"/>
	<path fill="#C2D5D9" d="M340.532,538.571l-9.409,16.616l3.676-0.168l1.831-0.583l8.102-8.055L340.532,538.571 M381.654,502.232
		l-23.266,4.804l-17.12,30.231l5.637,6.953l3.999-3.979L351,540l0.059,0.091l21.546-21.423l8.742-10.547L381.654,502.232"/>
	<polyline fill="#CBC2BF" points="114.015,149.439 130.84,183.41 126,158 114.015,149.439 	"/>
	<path fill="#C2D6DC" d="M230.945,558.928l-5.529,1.088l6.734-0.308L230.945,558.928 M189.34,556.199L182,562l10.416-0.476
		L189.34,556.199"/>
	<polyline fill="#CCD6D9" points="372.791,265.135 371.85,267.846 373.034,265.401 372.791,265.135 	"/>
	<polyline fill="#BFCDCE" points="389.257,333.642 389.676,341.364 412.708,355.564 412.147,352.803 409,351 411.947,351.816 
		410.063,342.54 389.257,333.642 	"/>
	<polyline fill="#BFCDCE" points="416.131,355.087 414.022,356.375 420.226,360.199 418.356,356.362 416.131,355.087 	"/>
	<polyline fill="#BFCDCE" points="392.241,388.693 392.579,394.925 394.214,393.633 392.241,388.693 	"/>
	<path fill="#D6ECEE" d="M398.061,496.06l0.149,2.754l0.188-0.039l0.78-1.596L398.061,496.06 M403.03,488.415l-3.89,3.867l0.88,3.18
		l3.223-6.585L403.03,488.415"/>
	<path fill="#D6EDED" d="M401.526,485.163l-2.731,5.865l0.347,1.254l3.89-3.867L401.526,485.163 M396.931,475.224l0.611,11.271
		l0.433,1.565l3.142-3.789L396.931,475.224"/>
	<polyline fill="#B5B6B7" points="399.142,492.282 397.921,493.495 398.061,496.06 399.18,497.179 400.021,495.462 399.142,492.282 
			"/>
	<path fill="#B6B6B7" d="M398.795,491.028l-0.902,1.938l0.028,0.528l1.221-1.213L398.795,491.028 M397.542,486.497l0.106,1.959
		l0.325-0.394L397.542,486.497"/>
	<polyline fill="#BCC9CC" points="387,292 387.847,307.621 393.979,306.326 387,292 	"/>
	<polyline fill="#BFCDCE" points="144.266,229.418 142.996,240.568 144,242 142.66,243.517 142.531,244.648 149,237 
		144.266,229.418 	"/>
	<polyline fill="#CBC2BF" points="89.896,147.98 95.65,154.766 97.93,155.219 95.176,150.808 89.896,147.98 	"/>
	<polyline fill="#BFC8CC" points="136.533,250.459 134.839,252.378 134.443,254.212 136.7,251.543 136.533,250.459 	"/>
	<polyline fill="#D1C9C7" points="52.563,111.558 52.615,111.633 70.625,130.157 66.042,119.844 61.636,114.647 52.563,111.558 	"/>
	<polyline fill="#D1C9C7" points="70.911,117.805 72.81,120.007 78.462,124.045 75.609,119.475 71.853,118.126 70.911,117.805 	"/>
	<polyline fill="#D1C9C7" points="85.84,145.807 87,147 87.095,146.479 85.84,145.807 	"/>
	<path fill="#C0BFBF" d="M371.516,150.848l-3.298,1.884l-1.063,7l4.459-8.245L371.516,150.848 M370,141l-0.856,5.638l1.516-1.357
		L370,141"/>
	<polyline fill="#C1C7C8" points="345.125,195.576 347,197 347.211,196.609 345.125,195.576 	"/>
	<path fill="#BFCDCE" d="M392.122,386.494l-0.564,0.489l0.685,1.71L392.122,386.494 M389.455,341.228l0.366,2.818l-0.146-2.684
		L389.455,341.228"/>
	<polyline fill="#BFCDCE" points="420.226,360.199 424.752,369.492 429.373,365.839 420.226,360.199 	"/>
	<polyline fill="#C2D6DC" points="379.854,536.665 371.695,553.334 379,553 379.854,536.665 	"/>
	<path fill="#C9BFBF" d="M398.246,620.051l6.914,7.013l-0.213-3.931l-0.114-0.177L398.246,620.051 M360.625,575.953l-1.942,3.969
		l8.96,9.088L360.625,575.953 M366.518,563.913l-1.375,2.81l16.04,19.79L366.518,563.913"/>
	<polyline fill="#E4DFDF" points="404.947,623.133 405.16,627.062 412,634 404.947,623.133 	"/>
	<path fill="#EAF5F6" d="M399.18,497.179l-0.78,1.596l1.971-0.406L399.18,497.179 M403.243,488.877l-3.222,6.585l0.778,2.818
		L407,497L403.243,488.877"/>
	<polyline fill="#E5DFDF" points="400.801,498.28 400.369,498.369 401,499 400.801,498.28 	"/>
	<polyline fill="#DADADB" points="400.021,495.462 399.18,497.179 400.369,498.369 400.801,498.28 400.021,495.462 	"/>
	<polyline fill="#BFCDCE" points="124.02,479.032 123.958,479.074 119.553,486.783 135.312,496.989 124.02,479.032 	"/>
	<path fill="#B3B2B3" d="M158.551,554.17l-0.066,0.145l0.007,0.009L158.551,554.17 M146.588,540.413l11.206,13.095l0.805-0.914
		L146.588,540.413"/>
	<path fill="#DFE6E6" d="M138.829,573.734l-4.582,5.742l1.481-0.896l3.532-4.013L138.829,573.734 M111.161,520.188l-1.525,13.396
		l16.047,14.71L111.161,520.188"/>
	<polyline fill="#FFFFFF" points="39.794,392.794 38.288,393.983 40.012,393.011 39.794,392.794 	"/>
	<path fill="#C4BFBF" d="M35,388l-0.856,0.652l2.752,6.115l1.392-0.784l1.506-1.189L35,388 M34.959,372.719l-1.571,0.983
		l-0.197,0.233l2.045-0.683L34.959,372.719"/>
	<polyline fill="#E1DFDF" points="33.388,373.703 32.818,374.06 33.191,373.936 33.388,373.703 	"/>
	<polyline fill="#C3BFBF" points="100.649,499.846 100.556,501.174 105.138,508.533 100.649,499.846 	"/>
	<polyline fill="#CBC5C4" points="30.859,383.859 20.778,388.614 9.947,401.421 14,404 34.144,388.652 32.909,385.909 
		30.859,383.859 	"/>
	<polyline fill="#CBC5C4" points="20.778,388.614 10.161,393.622 5.676,398.703 9.947,401.421 20.778,388.614 	"/>
	<polyline fill="#BFC8CC" points="109.971,367.601 106,386 108.321,391.004 109.971,367.601 	"/>
	<polyline fill="#BFBFBF" points="84.006,368.215 82.097,369.291 83,372 84.006,368.215 	"/>
	<polyline fill="#C3BFBF" points="94.115,487.201 100.649,499.846 101.045,494.229 94.115,487.201 	"/>
	<polyline fill="#E1DFDF" points="38.288,393.983 36.896,394.767 37,395 38.288,393.983 	"/>
	<path fill="#E1DFDF" d="M90.128,483.158l-0.139,1.037l10.567,16.979l0.093-1.326l-6.534-12.646L90.128,483.158 M88,481l0.648,1.043
		l0.014-0.37L88,481"/>
	<polyline fill="#C2D6DC" points="338,554 336.63,554.436 336.104,554.961 338.646,554.844 338,554 	"/>
	<polyline fill="#FFFEFE" points="336.104,554.961 334.799,555.019 330.43,556.411 325,566 336.104,554.961 	"/>
	<polyline fill="#E0EAED" points="336.63,554.436 334.799,555.019 336.104,554.961 336.63,554.436 	"/>
	<polyline fill="#C9BFBF" points="342.979,560.497 342,563 355.01,576.195 342.979,560.497 	"/>
	<polyline fill="#C4BFBF" points="340.554,557.332 340,558 340.987,557.898 340.554,557.332 	"/>
	<polyline fill="#CBC8C6" points="374.249,601.302 380,612 383.699,613.633 374.249,601.302 	"/>
	<polyline fill="#FFFFFF" points="62.027,44.472 62.882,46.199 63.564,45.484 62.027,44.472 	"/>
	<path fill="#BFBFBF" d="M49.451,57.034L49,58l1.664,0.994l0.76-0.796L49.451,57.034 M56,43l-1.818,3.896l4.837,3.349l2.87-3.005
		L56,43"/>
	<path fill="#C1C7C8" d="M260.809,153.827l-13.204,8.905l3.747,1.857l14.104-8.462L260.809,153.827 M245,146l-0.891,11.003
		l14.625-4.201L245,146"/>
	<polyline fill="#C9C5C8" points="210,138 205.41,138 210.123,141.859 212.391,143.35 210,138 	"/>
	<polyline fill="#B7B8BB" points="205.41,138 204.254,138 210.123,141.859 205.41,138 	"/>
	<polyline fill="#C3C1C2" points="407.536,24.6 400.547,29.589 389.106,43.137 407.536,24.6 	"/>
	<polyline fill="#C3C1C2" points="423,3 400.547,29.589 407.536,24.6 424.69,7.346 423,3 	"/>
	<polyline fill="#E6E0DF" points="56,108 61.406,114.376 64.03,115.318 63,113 56,108 	"/>
	<polyline fill="#E8E4E3" points="52.229,111.082 52.563,111.558 61.636,114.647 61.406,114.376 52.229,111.082 	"/>
	<polyline fill="#DBD5D3" points="61.406,114.376 61.636,114.647 64.106,115.489 64.03,115.318 61.406,114.376 	"/>
	<polyline fill="#E8E4E3" points="70.889,117.781 70.911,117.805 71.853,118.126 70.889,117.781 	"/>
	<polyline fill="#C6C2BF" points="59,104 63,113 68.484,116.917 70.889,117.781 59,104 	"/>
	<polyline fill="#B9B2AF" points="63,113 64.03,115.318 68.484,116.917 63,113 	"/>
	<polyline fill="#BBB4B1" points="68.484,116.917 68.651,117.036 70.911,117.805 70.889,117.781 68.484,116.917 	"/>
	<polyline fill="#DFE6E6" points="188.375,145.135 182.507,155.806 204.941,163.445 198.307,151.336 188.375,145.135 	"/>
	<polyline fill="#B7B8BB" points="198.307,151.336 204.941,163.445 210.412,165.308 215.204,161.887 198.307,151.336 	"/>
	<polyline fill="#BFCDCE" points="232.678,172.799 232.588,172.859 233,173 232.678,172.799 	"/>
	<polyline fill="#FFFEFE" points="500,392 493.391,396.699 494.289,397.678 500,392 	"/>
	<polyline fill="#CCD6D9" points="360.148,247.561 360.898,252.162 368.525,260.482 369.637,259.501 360.148,247.561 	"/>
	<polyline fill="#CCD6D9" points="373.522,264.391 373.034,265.401 382.737,275.986 373.522,264.391 	"/>
	<polyline fill="#E6EAEC" points="373.192,263.976 372.791,265.135 373.034,265.401 373.522,264.391 373.192,263.976 	"/>
	<polyline fill="#C2BFBF" points="400,293 400.475,295.336 402.938,298.023 400,293 	"/>
	<polyline fill="#CDD3D7" points="357.436,221.008 356.141,222.992 356.476,225.048 357.436,221.008 	"/>
	<polyline fill="#BFBFBF" points="98.794,312.586 95,316 94.515,328.681 98.794,312.586 	"/>
	<polyline fill="#C1C1C4" points="110.014,335.119 107,341 109.538,338.664 110.014,335.119 	"/>
	<polyline fill="#C4BFBF" points="94,350 93.695,350.115 93.69,350.245 94,350 	"/>
	<polyline fill="#F0EFEF" points="88.663,481.673 88.648,482.043 89.989,484.195 90.128,483.158 88.663,481.673 	"/>
	<polyline fill="#D2D6DA" points="114.597,301 111.667,301 109.498,302.951 113.019,312.748 114.597,301 	"/>
	<polyline fill="#CBC2BF" points="97.93,155.219 103.232,163.71 113.142,175.398 117,159 97.93,155.219 	"/>
	<polyline fill="#E6E0DF" points="95.65,154.766 103.232,163.71 97.93,155.219 95.65,154.766 	"/>
	<polyline fill="#BFBFBF" points="76,333.25 73.732,336.51 74.451,339.833 76,333.25 	"/>
	<polyline fill="#C4BFBF" points="69.912,359.124 68.05,359.829 69,363 69.912,359.124 	"/>
	<polyline fill="#E5E2E2" points="10.161,393.622 3,397 5.676,398.703 10.161,393.622 	"/>
	<polyline fill="#E8E4E3" points="52.532,111.548 52.615,111.633 52.563,111.558 52.532,111.548 	"/>
	<polyline fill="#DFE6E6" points="142.996,240.568 142.66,243.517 144,242 142.996,240.568 	"/>
	<polyline fill="#DFE4E6" points="136,247 134.839,252.378 136.533,250.459 136,247 	"/>
	<polyline fill="#F4F2F1" points="52,111 52.532,111.548 52.563,111.558 52.229,111.082 52,111 	"/>
	<polyline fill="#C4BFBF" points="36.391,371.821 34.806,372.422 34.959,372.719 36.391,371.821 	"/>
	<polyline fill="#FFFFFF" points="34.679,372.177 34.314,372.608 34.806,372.422 34.679,372.177 	"/>
	<polyline fill="#E1DFDF" points="34.806,372.422 34.314,372.608 33.388,373.703 34.959,372.719 34.806,372.422 	"/>
	<polyline fill="#FFFFFF" points="73.552,343.655 72.205,349.378 74.897,347.691 73.552,343.655 	"/>
	<polyline fill="#BFBFBF" points="74.451,339.833 73.552,343.655 74.897,347.691 76,347 74.451,339.833 	"/>
	<polyline fill="#DFDFDF" points="73.732,336.51 72,339 73.552,343.655 74.451,339.833 73.732,336.51 	"/>
	<polyline fill="#FFFFFF" points="24.442,377.442 20.755,381.62 25.59,378.59 24.442,377.442 	"/>
	<path fill="#B4B3BE" d="M244.109,157.003l-5.1,1.467l4.789,2.375L244.109,157.003 M265,151l-6.266,1.802l2.072,1.025L265,151"/>
	<polyline fill="#B5B3BE" points="234.254,159.835 232.643,160.298 237.479,164.257 234.254,159.835 	"/>
	<polyline fill="#B3B2B3" points="135.471,557.265 142.701,568.882 145,566 135.471,557.265 	"/>
	<polyline fill="#BBB7B7" points="127.513,587.919 116,601 116.03,602.309 127.513,587.919 	"/>
	<polyline fill="#FFFFFF" points="116.01,98.042 116.522,100.267 156.152,125.013 156.334,123.416 117.127,98.71 116.01,98.042 	"/>
	<polyline fill="#DFE6E6" points="156.334,123.416 156.152,125.013 188.375,145.135 189,144 156.334,123.416 	"/>
	<polyline fill="#BFBFBF" points="116,98 116.01,98.042 117.127,98.71 116,98 	"/>
	<polyline fill="#FFFFFF" points="139.84,201.582 144.921,223.658 146.359,211.03 145,212 139.84,201.582 	"/>
	<polyline fill="#BFCDCE" points="155.866,204.244 146.359,211.03 144.921,223.658 145,224 155.866,204.244 	"/>
	<polyline fill="#C5CBCD" points="162.991,191.289 160,194 159.17,198.237 162.991,191.289 	"/>
	<g>
		<path fill="#7F9B9D" d="M122.958,479.074l-7.944,5.416l3.539,2.293L122.958,479.074 M259.357,451.159l-4.76,13.808l1.139,19.925
			L259.357,451.159 M119.611,437.18l-1.021,8.968L120,444l-1.889,11.964L126,477l-2.98,2.032l11.292,17.957L166,517.513
			L119.611,437.18 M121.411,421.378l-0.862,7.567l5.975,3.455L121.411,421.378 M390.558,386.983l-25.294,21.921l2.312,4.996
			l24.005-18.977l-0.338-6.23L390.558,386.983 M417.356,356.362l1.868,3.837l9.147,5.64l2.318-1.833L417.356,356.362
			 M424.712,349.231l-7.203,4.4l19.48,5.396l3.73-2.949L424.712,349.231 M387.426,333.287l1.029,7.941l0.221,0.136l-0.419-7.722
			L387.426,333.287 M351.878,322.541l-10.99,31.684l13.868-27.736L351.878,322.541 M229.716,322.427l-3.73,5.595l1.17,4.036
			l2.39-7.526L229.716,322.427 M209.874,245.388l-65.791,60.557l23.112,149.981l47.151,27.272l3.764-17.429l6.724-83.043L197,421
			l3.931-55.396L182,394l17-134l8.971,6.408L208,266l0.157,0.541l24.658,17.613l1.108-13.684L217,258l18.866-11.528l0.055-0.676
			L209.874,245.388 M235.774,221.549l-4.261,3.923l5.528,6.488l0.571-7.057L235.774,221.549 M157.338,202.479l-2.473,1.765L144,224
			l-0.079-0.342l-0.656,5.76L148,237l-6.469,7.648l-2.929,25.728l0.83,5.39l5.741-11.201L157.338,202.479 M239.07,167.813
			l-7.393,4.985L232,173l-0.413-0.141l-5.388,3.634l1.635,3.659l13.424-0.286l0.334-4.125L238,172l2.869-1.721L239.07,167.813
			 M206.213,167.592l-0.031,0.022l0.038-0.011L206.213,167.592 M224.558,154.497l-6.208,4.432l2.055,4.599l11.237-3.229
			L224.558,154.497"/>
		<path fill="#817F7F" d="M371.707,158.594l-6.313,6.133l-6.321,41.624L360,206l-2.424,10.203L357,220l18-40L371.707,158.594
			 M370.613,151.488l-4.459,8.245l-0.216,1.424l4.951-7.866L370.613,151.488"/>
		<polyline fill="#98867F" points="88.713,132.08 87.583,138.29 102,155 94.176,150.808 96.93,155.219 116,159 112.142,175.398 
			133,200 129.84,183.41 113.015,149.439 88.713,132.08 		"/>
		<polyline fill="#848E92" points="300.779,174.114 321.097,199.679 342.428,210.26 347,197 346.211,196.609 346,197 
			344.125,195.576 300.779,174.114 		"/>
		<path fill="#445C61" d="M245.836,337.39l-16.145,3.407L237,366l-12.166,16.729l-6.724,83.043L245.836,337.39 M272.173,331.83
			l-24.882,5.253l7.307,127.884l4.762-13.808L265,398.625V351l5.648-4.987L272.173,331.83 M230.667,321l-0.95,1.425l-0.17,2.105
			L230.667,321 M233.923,270.469l-1.108,13.684l7.784,5.56l3.686-11.608L233.923,270.469 M235.92,245.795l-0.055,0.676l1.079-0.659
			L235.92,245.795 M237.612,224.903l-0.571,7.057l7.727,9.071l1.259-0.77L237.612,224.903 M261.191,198.154l-17.938,16.51
			l9.579,21.438L253,236l0.021,0.523l2.608,5.84l11.464-36.112L261.191,198.154 M241.592,175.741l-0.334,4.125l4.208-0.089
			L241.592,175.741"/>
		<path fill="#85ADB8" d="M265,552.033l-35.054,6.896l1.205,0.78l33.85-1.548L265,552.033 M343.73,546.383l-8.102,8.055L337,554
			l0.646,0.845l4.127-0.188l3.886-4.688L343.73,546.383 M349.904,540.243l-3.999,3.979l1.646,2.033L349.904,540.243
			 M379.146,531.067l-10.411,22.356l1.961-0.09l8.159-16.67L379.146,531.067 M371.604,518.668l-21.547,21.423l1.663,2.563
			L371.604,518.668 M357.39,507.036l-74.87,15.456l-0.041,0.118L316,542l-43.193,8.497l-2.576,7.428l59.894-2.736l9.409-16.616
			L336,532l4.27,5.269L357.39,507.036 M386,400l-18.202,14.384l15.678,33.904L386,400"/>
		<path fill="#7F9199" d="M118.152,329.814l-1.28,1.178l-7.901,36.609l-1.649,23.401l14.089,30.374l3.578-31.427L123,393
			l3.654-39.527L118.152,329.814 M135.7,251.543l-2.257,2.668l-0.641,2.972L135,254l-1.341,23.687L134,274l0.477,11.437l3.1-6.048
			l1.026-9.012L135.7,251.543"/>
		<path fill="#3F5F68" d="M144.083,305.946l-2.428,2.235l-5.559,16.129L138,370l-13.011,19.951l-3.578,31.427l5.113,11.022
			l40.672,23.526L144.083,305.946 M138.603,270.376l-1.026,9.012l1.856-3.622L138.603,270.376"/>
		<path fill="#927F7F" d="M349.396,556.926l-6.272,0.647l-1.145,2.924l12.03,15.698l3.673,3.727l1.942-3.969L349.396,556.926
			 M360.254,555.802l-4.578,0.474l8.467,10.446l1.375-2.81L360.254,555.802"/>
		<polyline fill="#55565C" points="350.059,540.091 349.904,540.243 347.553,546.255 348.139,546.975 351.722,542.653 
			350.059,540.091 		"/>
		<polyline fill="#736A6C" points="350,540 349.904,540.243 350.059,540.091 350,540 		"/>
		<polyline fill="#9FAFB3" points="166.014,517.535 182,552 180.575,542.753 166.014,517.535 		"/>
		<path fill="#ADDADD" d="M265,494.986l-8.311,6.569l0.033,0.604l8.276-6.541L265,494.986 M383.476,448.288l-0.536,10.273
			l3.025-4.89L383.476,448.288 M367.574,413.9l-65.289,51.612l-0.309,0.886l65.82-52.016L367.574,413.9"/>
		<path fill="#6DA8AC" d="M265,434.801l-5.643,16.358l-3.621,33.731l0.953,16.665l8.311-6.569V434.801 M365.264,408.904
			l-61.974,53.711l-1.005,2.897l65.289-51.612L365.264,408.904"/>
		<path fill="#4F888E" d="M265,398.625l-5.643,52.534L265,434.801V398.625 M291.282,327.796l-19.109,4.034l-1.522,14.183
			L291.282,327.796"/>
		<path fill="#6FB1B9" d="M265,495.619l-8.275,6.541L257,507l-0.693,0.472L265,512.5V495.619 M367.798,414.384l-65.82,52.016
			l-19.458,56.094l74.87-15.456L371,483l7.599-5.4L374,473l8.938-14.438l0.536-10.273L367.798,414.384"/>
		<polyline fill="#ADDADD" points="395.963,494.964 393.845,499.51 397.21,498.814 397.061,496.06 395.963,494.964 		"/>
		<polyline fill="#ADD9DC" points="381.776,480.776 380.654,502.232 386.173,501.094 393.389,492.388 381.776,480.776 		"/>
		<polyline fill="#8EC5CA" points="378.599,477.598 371,483 357.39,507.036 380.654,502.232 381.776,480.776 378.599,477.598 		"/>
		<polyline fill="#ADDADD" points="389.691,461.731 391.536,468.4 392.469,467.737 389.691,461.731 		"/>
		<polyline fill="#ADD9DC" points="392.469,467.737 391.536,468.4 396.542,486.497 395.931,475.224 392.469,467.737 		"/>
		<path fill="#7F7F7F" d="M86.479,355.147l-7.994,6.311l2.611,7.833l1.91-1.076L86.479,355.147 M99.75,305.226l-8.268,4.331
			L75,333.25l-1.549,6.583L75,347l-1.103,0.691l2.825,8.475l10.549-3.996l6.244-23.487L94,316l3.794-3.414L99.75,305.226"/>
		<path fill="#51595F" d="M238.053,219.451l-2.279,2.098l1.838,3.354L238.053,219.451 M226.199,176.493l-5.655,3.814l7.29-0.155
			L226.199,176.493 M209.412,165.308l-3.199,2.283l0.006,0.012l5.387-1.548L209.412,165.308 M218.351,158.928l-4.146,2.959
			l3.752,2.343l2.449-0.704L218.351,158.928"/>
		<path fill="#343940" d="M253.021,236.523l0.498,12.487l2.11-6.646L253.021,236.523 M243.254,214.664l-5.201,4.787l-0.441,5.452
			l8.415,15.358l6.807-4.16L243.254,214.664"/>
		<polyline fill="#918B90" points="209.123,141.859 211.648,143.927 211.39,143.35 209.123,141.859 		"/>
		<path fill="#717277" d="M203.941,163.445l2.272,4.147l3.199-2.284L203.941,163.445 M203.254,138H190l1.959,3.576L212,156
			l-18.046-10.784l3.353,6.12l16.897,10.553l4.146-2.959l-6.703-15.002l-2.525-2.067L203.254,138"/>
		<polyline fill="#957F7F" points="387,452 385.965,453.673 389.691,461.731 387,452 		"/>
		<polyline fill="#6B6C6E" points="385.965,453.673 382.938,458.561 382.072,475.13 391.536,468.4 389.691,461.731 385.965,453.673 
					"/>
		<polyline fill="#4D585C" points="382.938,458.561 374,473 378.599,477.598 382.072,475.13 382.938,458.561 		"/>
		<polyline fill="#6B6C6E" points="396.921,493.495 396.408,494.006 395.963,494.964 397.061,496.06 396.921,493.495 		"/>
		<path fill="#6B6C6D" d="M396.893,492.967l-0.483,1.039l0.513-0.511L396.893,492.967 M391.536,468.4l-9.464,6.729l-0.296,5.646
			l11.611,11.612l3.261-3.934l-0.106-1.959L391.536,468.4"/>
		<polyline fill="#5C6265" points="382.072,475.13 378.599,477.598 381.776,480.776 382.072,475.13 		"/>
		<path fill="#9BCDCE" d="M208.157,266.54l17.83,61.48l3.73-5.595l3.099-38.272L208.157,266.54 M199,260l-17,134l18.931-28.396
			l7.04-99.195L199,260"/>
		<polyline fill="#7EADB0" points="232.815,284.153 229.716,322.427 230.667,321 240.599,289.713 232.815,284.153 		"/>
		<path fill="#99ACB3" d="M359.898,252.162l2.146,13.158l5.48-4.838L359.898,252.162 M289.98,160.525l-4.582,5.973l15.381,7.616
			L289.98,160.525"/>
		<path fill="#597A82" d="M229.546,324.531l-2.39,7.526l1.392,4.798L229.546,324.531 M319.177,277.688l-6.23,18.07l4.238,9.169
			l13.295-11.737L319.177,277.688"/>
		<polyline fill="#5B747C" points="285.398,166.498 276.799,177.708 279.51,179.053 282,179 281.091,179.837 321.097,199.679 
			300.779,174.114 285.398,166.498 		"/>
		<path fill="#3B5B64" d="M298.161,263.787l14.784,31.972l6.23-18.07l-3.521-4.83L298.161,263.787 M253.732,254.328L255,286
			l-10.716-7.896l-3.686,11.608L248,295l-17.333,26l-1.121,3.53l-0.998,12.324l1.144,3.943l16.145-3.407L247,332l0.291,5.083
			l24.882-5.253l3.937-36.66L253.732,254.328 M267.096,206.251l-11.465,36.112l21.082,47.185l3.752-34.937L260,244l22.523-8.559
			L283,231l1.676,3.623l2.432-0.923L267.096,206.251"/>
		<polyline fill="#4F8189" points="312.945,295.76 306.544,314.321 317.185,304.927 312.945,295.76 		"/>
		<path fill="#41717A" d="M280.465,254.611l-3.752,34.937L293,326l-16.891-30.83l-3.938,36.66l19.109-4.034l15.262-13.475
			l6.401-18.562l-14.784-31.973L280.465,254.611 M283,231l-0.477,4.441l2.151-0.818L283,231"/>
		<polyline fill="#334954" points="255.631,242.364 253.521,249.01 253.732,254.328 276.109,295.17 276.713,289.548 
			255.631,242.364 		"/>
		<polyline fill="#36555F" points="276.713,289.548 276.109,295.17 293,326 276.713,289.548 		"/>
		<polyline fill="#99ACB3" points="372.034,265.401 370.85,267.846 369.112,272.857 377.952,280.095 380,276 380.837,282.457 
			398.137,296.622 381.737,275.986 372.034,265.401 		"/>
		<path fill="#79939A" d="M380.837,282.457l3.335,25.729l2.675-0.565L386,292l6.979,14.327l8.367-1.767l-1.063-5.235l-2.148-2.703
			L380.837,282.457 M369.112,272.857l-3.972,11.446l2.635,16.146l10.177-20.354L369.112,272.857"/>
		<polyline fill="#58848B" points="240.599,289.713 230.667,321 248,295 240.599,289.713 		"/>
		<path fill="#8C9DA3" d="M211.703,537.737l-5.536,3.757l-1.415,1.117l0.43,0.278L211.703,537.737 M112,424l7.611,13.182
			l0.938-8.235L112,424"/>
		<path fill="#4C6B72" d="M206.167,541.494l-1.534,1.04l0.119,0.077L206.167,541.494 M167.195,455.927l10.675,69.273l24.043,15.571
			l12.433-57.572L167.195,455.927 M120.549,428.945l-0.938,8.235L166,517.513l0.004,0.002L126.523,432.4L120.549,428.945"/>
		<path fill="#4E7480" d="M212.317,537.32l-0.614,0.417l-6.521,5.152l6.352,4.114L212.317,537.32 M282.479,522.61l-9.672,27.887
			L316,542L282.479,522.61 M253.076,509.662l-18.134,12.307l-11.33,32.857l6.334,4.104L265,552.033v-25.924L251,529L253.076,509.662
			"/>
		<polyline fill="#305764" points="234.942,521.969 212.317,537.32 211.534,547.005 223.612,554.826 234.942,521.969 		"/>
		<polyline fill="#2B4D57" points="126.523,432.4 166.004,517.515 177.87,525.201 167.195,455.927 126.523,432.4 		"/>
		<path fill="#8C9DA3" d="M210.428,560.655l-19.013,0.869L194,566l16.254-3.196L210.428,560.655 M224.416,560.016l-2.635,0.12
			l-0.147,0.428L224.416,560.016 M204.752,542.611l-16.655,13.167l0.243,0.421l16.842-13.31L204.752,542.611"/>
		<path fill="#6B848A" d="M177.87,525.201l2.705,17.552l7.522,13.025l16.655-13.167l-0.119-0.077L201,545l0.913-4.228
			L177.87,525.201 M166,517.513l0.013,0.021l-0.009-0.02L166,517.513"/>
		<polyline fill="#6C8188" points="221.78,560.136 210.428,560.655 210.254,562.802 221.633,560.564 221.78,560.136 		"/>
		<path fill="#6D8891" d="M223.612,554.826l-1.832,5.312l2.635-0.12l5.53-1.088L223.612,554.826 M205.182,542.889l-16.842,13.31
			l3.075,5.325l19.013-0.869l1.105-13.65L205.182,542.889"/>
		<polyline fill="#5E7A84" points="211.534,547.005 210.428,560.655 221.78,560.136 223.612,554.826 211.534,547.005 		"/>
		<polyline fill="#5B767D" points="166.004,517.515 166.014,517.535 180.575,542.753 177.87,525.201 166.004,517.515 		"/>
		<polyline fill="#447680" points="256.307,507.47 253.076,509.662 251,529 265,526.109 265,512.5 256.307,507.47 		"/>
		<polyline fill="#838488" points="115.506,322.451 109.014,335.119 108.538,338.664 116.872,330.992 117.511,328.031 
			115.506,322.451 		"/>
		<path fill="#435257" d="M145.173,264.564l-5.741,11.201l1.561,10.129L145.173,264.564 M215.166,183.934L178,209l-0.175-5.771
			l-34.254,99.393l0.512,3.324l65.791-60.557L185,245l41-26l5.513,6.472l4.261-3.923L215.166,183.934 M241.258,179.866
			l-13.424,0.286l11.345,25.392L241.258,179.866"/>
		<polyline fill="#253239" points="245.466,179.777 241.258,179.866 239.179,205.544 243.254,214.664 261.191,198.154 
			255.141,189.854 245.466,179.777 		"/>
		<path fill="#434D55" d="M117.511,328.031l-0.639,2.961l1.28-1.178L117.511,328.031 M137.576,279.387l-3.1,6.048l0.646,15.504
			L137.576,279.387"/>
		<path fill="#23343C" d="M143.571,302.621l-1.916,5.561l2.428-2.235L143.571,302.621 M139.433,275.765l-1.856,3.622l-2.454,21.553
			l0.513,12.301l5.358-27.347L139.433,275.765"/>
		<polyline fill="#2B3138" points="227.834,180.152 220.544,180.307 215.166,183.934 235.774,221.549 238.053,219.451 
			239.179,205.544 227.834,180.152 		"/>
		<polyline fill="#1D2128" points="239.179,205.544 238.053,219.451 243.254,214.664 239.179,205.544 		"/>
		<polyline fill="#313F47" points="282,179 279.51,179.053 281.091,179.837 282,179 		"/>
		<path fill="#887F7F" d="M76.722,356.166l-7.81,2.958L68,363l-0.95-3.171l-31.659,11.992l-1.432,0.897l0.277,0.535L47,369
			l-1.038,7.264L55,372l-9.458,7.206l-1.33,9.312l34.274-27.06L76.722,356.166 M92.695,350.115l-5.424,2.055l-0.792,2.979
			l6.21-4.902L92.695,350.115"/>
		<polyline fill="#473F3F" points="87.271,352.17 76.722,356.166 78.486,361.458 86.479,355.147 87.271,352.17 		"/>
		<polyline fill="#878385" points="425.215,11.267 406.536,24.6 388.106,43.137 308,138 425.401,24.479 427.283,16.586 
			425.215,11.267 		"/>
		<polyline fill="#878385" points="423.69,7.346 406.536,24.6 425.215,11.267 423.69,7.346 		"/>
		<polyline fill="#878385" points="427.283,16.586 425.401,24.479 429,21 427.283,16.586 		"/>
		<polyline fill="#A4938F" points="74.609,119.475 77.462,124.045 88.713,132.08 90,125 74.609,119.475 		"/>
		<polyline fill="#70564F" points="77.462,124.045 83.147,133.148 87.583,138.29 88.713,132.08 77.462,124.045 		"/>
		<polyline fill="#B8ABA7" points="60.636,114.647 65.042,119.844 63.106,115.489 60.636,114.647 		"/>
		<polyline fill="#B8ABA7" points="71.81,120.007 83.147,133.148 77.462,124.045 71.81,120.007 		"/>
		<path fill="#877F7F" d="M110.41,504.739l-1.747,11.063l1.688,2.713l1.412-12.403L110.41,504.739 M100.045,494.229l-0.396,5.617
			l4.489,8.687l2.259,3.629l-2.966-14.5L100.045,494.229"/>
		<path fill="#676566" d="M157.484,554.313l-10.527,23.012L148,579l9.492-24.678L157.484,554.313 M111.763,506.112l-1.412,12.403
			l24.12,38.75L144,566l-2.299,2.882l0.648,1.041l14.445-16.415l-11.206-13.095L111.763,506.112"/>
		<path fill="#7F7F7F" d="M50.424,58.198l-0.76,0.796l26.355,15.749L75,72.687L50.424,58.198 M60.889,47.239l-2.87,3.005l8.927,6.18
			l-3.714-7.5L60.889,47.239"/>
		<path fill="#7F7F7F" d="M75,72.687l1.019,2.056l38.991,23.299L115,98l1.127,0.71l39.343,23.511l0.223-1.96L75,72.687
			 M63.231,48.925l3.714,7.5l89,61.615l0.251-2.204L63.231,48.925"/>
		<polyline fill="#5F6566" points="156.197,115.836 155.946,118.039 179,134 155.693,120.26 155.47,122.22 193.954,145.216 
			191.959,141.575 156.197,115.836 		"/>
		<polyline fill="#37383B" points="191.959,141.575 193.954,145.216 212,156 191.959,141.575 		"/>
		<polyline fill="#5A473F" points="87.583,138.29 87.307,139.809 94.176,150.808 102,155 87.583,138.29 		"/>
		<polyline fill="#463027" points="83.147,133.148 87.307,139.809 87.583,138.29 83.147,133.148 		"/>
		<path fill="#8D847F" d="M86.365,144.994l-0.27,1.485l2.802,1.501L86.365,144.994 M69.625,130.157L74,140l10.84,5.809
			L69.625,130.157"/>
		<polyline fill="#73655F" points="87.307,139.809 86.365,144.994 88.896,147.98 94.176,150.808 87.307,139.809 		"/>
		<path fill="#776963" d="M65.042,119.844l4.583,10.313l15.215,15.65l1.254,0.672l0.27-1.485L65.042,119.844 M67.651,117.036
			l4.159,2.971l-1.899-2.201L67.651,117.036"/>
		<polyline fill="#6A5A53" points="63.106,115.489 65.042,119.844 86.365,144.994 87.307,139.809 83.147,133.148 71.81,120.007 
			67.651,117.036 63.106,115.489 		"/>
		<polyline fill="#5C4A4A" points="55,372 45.962,376.262 45.542,379.206 55,372 		"/>
		<path fill="#8A7F7F" d="M344.311,554.539l-2.537,0.116l-2.22,2.677l0.435,0.566l3.136-0.325L344.311,554.539 M368.734,553.425
			L359,553.868l1.254,1.935L368,555L368.734,553.425 M393.845,499.51l-3.751,0.773l-9.85,9.793l-1.099,20.99L393.845,499.51"/>
		<path fill="#4D565C" d="M345.658,549.969l-3.886,4.688l2.537-0.116l1.604-4.096L345.658,549.969 M380.244,510.077l-8.641,8.591
			l-19.883,23.985L359,553.868l9.734-0.443l10.411-22.356L380.244,510.077"/>
		<polyline fill="#8A7E7E" points="390.094,500.284 386.173,501.094 380.347,508.121 380.244,510.077 390.094,500.284 		"/>
		<polyline fill="#6B6A6C" points="380.347,508.121 371.604,518.668 380.244,510.077 380.347,508.121 		"/>
		<path fill="#533F3F" d="M348.023,554.369l-3.714,0.17l-1.188,3.034l6.273-0.647L348.023,554.369 M359,553.868l-5.087,0.232
			l1.763,2.175l4.578-0.474L359,553.868"/>
		<path fill="#342A2D" d="M345.913,550.443l-1.604,4.096l3.714-0.17L345.913,550.443 M351.722,542.653l-3.583,4.322l5.774,7.125
			l5.087-0.232L351.722,542.653"/>
		<polyline fill="#606C6E" points="395.705,494.705 390.094,500.284 393.845,499.51 395.963,494.964 395.705,494.705 		"/>
		<polyline fill="#606C6D" points="393.389,492.388 386.173,501.094 390.094,500.284 395.705,494.705 393.389,492.388 		"/>
		<polyline fill="#403637" points="396.408,494.006 395.705,494.705 395.963,494.964 396.408,494.006 		"/>
		<polyline fill="#403637" points="396.648,488.456 393.389,492.388 395.705,494.705 396.408,494.006 396.893,492.967 
			396.648,488.456 		"/>
		<polyline fill="#897F7F" points="402,482 400.115,484.273 400.526,485.163 402,482 		"/>
		<polyline fill="#757677" points="400.115,484.273 396.975,488.062 397.795,491.028 400.526,485.163 400.115,484.273 		"/>
		<polyline fill="#645A5B" points="396.975,488.062 396.648,488.456 396.893,492.967 397.795,491.028 396.975,488.062 		"/>
		<polyline fill="#444D4E" points="411.032,343.382 415.795,353.158 417.509,353.633 424.712,349.231 411.032,343.382 		"/>
		<polyline fill="#847F7F" points="399.475,295.336 400.055,298.192 403.859,301.307 401.938,298.023 399.475,295.336 		"/>
		<polyline fill="#646566" points="400.055,298.192 400.285,299.325 404,304 401.348,304.56 407.948,337.051 411.032,343.382 
			424.712,349.231 430,346 403.859,301.307 400.055,298.192 		"/>
		<polyline fill="#41494C" points="400.285,299.325 401.348,304.56 404,304 400.285,299.325 		"/>
		<path fill="#646566" d="M411.147,352.803l0.561,2.761l1.314,0.811l2.107-1.288L411.147,352.803 M409.063,342.54l1.885,9.276
			l4.848,1.342l-4.763-9.776L409.063,342.54"/>
		<polyline fill="#757273" points="407.948,337.051 409.063,342.54 411.032,343.382 407.948,337.051 		"/>
		<polyline fill="#757273" points="411.708,355.564 412,357 413.022,356.375 411.708,355.564 		"/>
		<path fill="#94807F" d="M384.061,132.374l-6.033,5.408l-6.868,12.699l2.346-1.34L384.061,132.374 M399.975,131.123l-7.221,7.018
			l6.422-3.67L399.975,131.123"/>
		<path fill="#93807F" d="M420.141,111.525l-20.166,19.599l-0.799,3.348L414,126L420.141,111.525 M428,93l-17.57,15.745
			l13.153-5.332L428,93"/>
		<path fill="#93807F" d="M368.144,146.637L351,162l16.218-9.268L368.144,146.637 M378.026,137.781l-8.368,7.499l0.856,5.568
			l0.644-0.368L378.026,137.781"/>
		<polyline fill="#745F5F" points="369.658,145.28 368.144,146.637 367.218,152.732 370.516,150.848 369.658,145.28 		"/>
		<polyline fill="#ADA5A5" points="31.909,385.909 33.144,388.652 34,388 31.909,385.909 		"/>
		<polyline fill="#8A8187" points="118.59,446.148 101.611,472.021 101.355,475.644 108.014,479.957 117,453 117.622,454.657 
			118.59,446.148 		"/>
		<polyline fill="#4A4E56" points="120,444 118.59,446.148 117.622,454.657 118.111,455.964 120,444 		"/>
		<path fill="#8A8187" d="M106.397,512.162l0.251,1.229l1.834,3.55l0.18-1.139L106.397,512.162 M101.355,475.644l-0.622,8.829
			l2.698,13.188l6.979,7.077l0.724-4.584L111,500l0.218-0.382l2.219-14.053L104,492l4.014-12.043L101.355,475.644"/>
		<polyline fill="#4E4047" points="103.431,497.662 106.397,512.162 108.663,515.802 110.41,504.739 103.431,497.662 		"/>
		<polyline fill="#8A8187" points="111.218,499.618 111,500 111.133,500.155 111.218,499.618 		"/>
		<polyline fill="#8A8187" points="106.648,513.391 108,520 108.483,516.941 106.648,513.391 		"/>
		<polyline fill="#8A8187" points="101.611,472.021 99.866,474.68 101.355,475.644 101.611,472.021 		"/>
		<polyline fill="#8A8187" points="99.866,474.68 99,476 100.733,484.473 101.355,475.644 99.866,474.68 		"/>
		<path fill="#5A6769" d="M345.905,544.22l-2.175,2.161l1.928,3.586l0.836-1.009l1.059-2.705L345.905,544.22 M336,532l3.532,6.571
			l0.736-1.304L336,532"/>
		<polyline fill="#797B79" points="340.27,537.267 339.532,538.571 343.73,546.383 345.905,544.22 340.27,537.267 		"/>
		<polyline fill="#61504D" points="355.676,556.275 349.396,556.926 359.625,575.953 364.143,566.721 355.676,556.275 		"/>
		<polyline fill="#423B3B" points="347.553,546.255 346.494,548.961 348.139,546.975 347.553,546.255 		"/>
		<polyline fill="#3F3B3B" points="346.494,548.961 345.658,549.969 345.913,550.443 346.494,548.961 		"/>
		<polyline fill="#42302C" points="353.913,554.1 348.023,554.369 349.396,556.926 355.676,556.275 353.913,554.1 		"/>
		<polyline fill="#322624" points="348.139,546.975 346.494,548.961 345.913,550.443 348.023,554.369 353.913,554.1 
			348.139,546.975 		"/>
		<path fill="#98908D" d="M366.643,589.01l6.606,12.292l9.45,12.331l14.547,6.418L366.643,589.01 M380.183,586.511l23.65,36.443
			l0.107,0.047l-0.417-7.693L380.183,586.511"/>
		<polyline fill="#7C706C" points="364.143,566.721 359.625,575.953 366.643,589.01 397.246,620.051 403.833,622.956 
			380.183,586.511 364.143,566.721 		"/>
		<polyline fill="#978F8C" points="403.523,615.308 403.94,623.004 413,627 403.523,615.308 		"/>
		<polyline fill="#A4AEB5" points="132.802,257.183 111.429,288.137 118,284 118.436,291.403 125,292 118.666,295.318 119,301 
			113.597,301 112.019,312.748 115.506,322.451 121.05,311.635 132.802,257.183 		"/>
		<path fill="#647781" d="M129.835,319.061l-11.683,10.753l8.501,23.657L129.835,319.061 M135,254l-2.198,3.184l-11.752,54.451
			l11.555-22.548l1.054-11.4L135,254"/>
		<polyline fill="#667079" points="121.05,311.635 115.506,322.451 117.511,328.031 121.05,311.635 		"/>
		<polyline fill="#475560" points="132.605,289.087 121.05,311.635 117.511,328.031 118.152,329.814 129.835,319.061 
			132.605,289.087 		"/>
		<polyline fill="#A4AEB5" points="110.667,301 107.818,301 107.8,301.01 108.498,302.951 110.667,301 		"/>
		<polyline fill="#978886" points="139.094,594.514 115.28,613.341 115.535,624.526 127.042,620.861 139.094,594.514 		"/>
		<polyline fill="#776F6D" points="142.349,569.923 138.26,574.568 139,576 134.729,578.581 126.513,587.919 115.03,602.309 
			115.28,613.341 139.094,594.514 146.958,577.325 142.349,569.923 		"/>
		<polyline fill="#4B3B39" points="156.794,553.508 142.349,569.923 146.958,577.325 157.484,554.313 156.794,553.508 		"/>
		<polyline fill="#877B79" points="159,551 157.599,552.594 158,553 157.551,554.17 159,551 		"/>
		<polyline fill="#716160" points="157.599,552.594 156.794,553.508 157.484,554.313 157.551,554.17 158,553 157.599,552.594 		"/>
		<polyline fill="#877B79" points="138.26,574.568 134.729,578.581 139,576 138.26,574.568 		"/>
		<polyline fill="#968885" points="127.042,620.861 115.535,624.526 116,645 127.042,620.861 		"/>
		<polyline fill="#9CA8AF" points="359.073,206.352 345.188,211.629 354,216 355.141,222.992 356.436,221.008 357.576,216.203 
			359.073,206.352 		"/>
		<polyline fill="#5C686F" points="360,206 359.073,206.352 357.576,216.203 360,206 		"/>
		<path fill="#395662" d="M282.523,235.441L260,244l20.465,10.611L282.523,235.441 M287.105,233.699l-2.431,0.923l13.485,29.164
			l17.494,9.071L287.105,233.699"/>
		<polyline fill="#3C606D" points="284.676,234.623 282.523,235.441 280.465,254.611 298.161,263.787 284.676,234.623 		"/>
		<polyline fill="#A8A7B2" points="318,124 292.499,139.302 272.036,159.882 280.486,164.066 284,153 289.98,160.525 
			292.918,156.697 292,156 297.652,150.524 318,124 		"/>
		<polyline fill="#6B6E7B" points="272.036,159.882 261.739,170.239 276.243,177.432 280.486,164.066 272.036,159.882 		"/>
		<polyline fill="#757D8C" points="284,153 280.486,164.066 285.398,166.498 289.98,160.525 284,153 		"/>
		<polyline fill="#566271" points="280.486,164.066 276.243,177.432 276.799,177.708 285.398,166.498 280.486,164.066 		"/>
		<polyline fill="#A8A7B2" points="297.652,150.524 292,156 292.918,156.697 297.652,150.524 		"/>
		<polyline fill="#687581" points="240.869,170.279 238,172 241.592,175.741 241.918,171.719 240.869,170.279 		"/>
		<polyline fill="#4B5564" points="241.918,171.719 241.592,175.741 245.466,179.777 247.758,179.728 241.918,171.719 		"/>
		<polyline fill="#3B414F" points="247.758,179.728 245.466,179.777 255.141,189.854 247.758,179.728 		"/>
		<polyline fill="#A8A7B2" points="292.499,139.302 264.454,156.128 272.036,159.882 292.499,139.302 		"/>
		<polyline fill="#898B96" points="264.454,156.128 250.351,164.59 261.739,170.239 272.036,159.882 264.454,156.128 		"/>
		<path fill="#8FC7C1" d="M225.986,328.021l-25.055,37.582L197,421l27.834-38.271l3.369-41.616L224,342l3.156-9.942L225.986,328.021
			 M208,266l-0.029,0.408l0.186,0.133L208,266"/>
		<polyline fill="#72A8A3" points="229.691,340.799 228.203,341.112 224.834,382.728 237,366 229.691,340.799 		"/>
		<polyline fill="#9DE0D9" points="207.971,266.407 200.931,365.602 225.986,328.021 208.157,266.54 207.971,266.407 		"/>
		<polyline fill="#7CB7B3" points="227.156,332.056 224,342 228.203,341.112 228.548,336.854 227.156,332.056 		"/>
		<polyline fill="#6DA7A4" points="228.548,336.854 228.203,341.112 229.691,340.799 228.548,336.854 		"/>
		<polyline fill="#B5ADA9" points="63.03,115.318 63.106,115.489 67.651,117.036 67.484,116.917 63.03,115.318 		"/>
		<polyline fill="#A8ACAF" points="214.204,161.887 209.412,165.308 211.606,166.055 217.957,164.231 214.204,161.887 		"/>
		<polyline fill="#71A5BD" points="231.513,225.471 209.874,245.388 235.92,245.795 237.041,231.96 231.513,225.471 		"/>
		<polyline fill="#54879E" points="237.041,231.96 235.92,245.795 236.944,245.811 244.767,241.031 237.041,231.96 		"/>
		<polyline fill="#53819A" points="226,219 185,245 209.874,245.388 231.513,225.471 226,219 		"/>
		<polyline fill="#535353" points="58.019,50.244 50.424,58.198 75,72.687 66.946,56.424 58.019,50.244 		"/>
		<polyline fill="#535454" points="66.946,56.424 75,72.687 155.693,120.26 155.946,118.039 66.946,56.424 		"/>
		<polyline fill="#434747" points="155.946,118.039 155.693,120.26 179,134 155.946,118.039 		"/>
		<polyline fill="#939393" points="49,44 45,55 48.451,57.034 53.182,46.895 49,44 		"/>
		<polyline fill="#737373" points="53.182,46.895 48.451,57.034 50.424,58.198 58.019,50.244 53.182,46.895 		"/>
		<polyline fill="#887F7F" points="115.823,470.453 113.737,483.664 114.279,484.014 115.823,470.453 		"/>
		<polyline fill="#484D4E" points="118.111,455.964 115.823,470.453 114.279,484.014 115.014,484.49 122.958,479.074 123,479 
			123.02,479.032 126,477 118.111,455.964 		"/>
		<polyline fill="#887F7F" points="113.737,483.664 113.437,485.565 114.159,485.073 114.279,484.014 113.737,483.664 		"/>
		<polyline fill="#686566" points="114.279,484.014 114.159,485.073 115.014,484.49 114.279,484.014 		"/>
		<polyline fill="#686566" points="123,479 122.958,479.074 123.02,479.032 123,479 		"/>
		<polyline fill="#4D4043" points="117,453 108.014,479.957 113.737,483.664 115.823,470.453 117.622,454.657 117,453 		"/>
		<polyline fill="#2E272A" points="117.622,454.657 115.823,470.453 118.111,455.964 117.622,454.657 		"/>
		<polyline fill="#4E4043" points="108.014,479.957 104,492 113.437,485.565 113.737,483.664 108.014,479.957 		"/>
		<polyline fill="#444F54" points="235.866,246.47 217,258 233.923,270.469 235.866,246.47 		"/>
		<path fill="#273036" d="M246.026,240.261l-1.259,0.77L249,246l-12.056-0.188l-1.079,0.659l-1.943,23.999l10.361,7.635
			l8.244-25.974L246.026,240.261 M253,236l-0.167,0.103l0.188,0.421L253,236"/>
		<polyline fill="#1F1E26" points="252.833,236.102 246.026,240.261 252.529,252.132 253.521,249.01 253.021,236.523 
			252.833,236.102 		"/>
		<polyline fill="#232F37" points="252.529,252.132 244.284,278.104 255,286 253.732,254.328 252.529,252.132 		"/>
		<polyline fill="#1E262F" points="253.521,249.01 252.529,252.132 253.732,254.328 253.521,249.01 		"/>
		<polyline fill="#2F4555" points="244.767,241.031 236.944,245.811 249,246 244.767,241.031 		"/>
		<path fill="#ADA39F" d="M365.938,161.156l-3.927,6.235l-0.712,1.315l4.095-3.979L365.938,161.156 M392.754,138.14l-19.25,11
			l-2.613,4.149l0.816,5.305L392.754,138.14 M404.762,111.042L395,115l-10.939,17.374l19.858-17.795L404.762,111.042"/>
		<polyline fill="#6E625F" points="370.891,153.291 365.938,161.156 365.396,164.728 371.707,158.594 370.891,153.291 		"/>
		<path fill="#ADA29F" d="M410.43,108.744l-5.668,2.298l-0.843,3.537L410.43,108.744 M432,100l-8.417,3.413l-3.442,8.112L432,100"/>
		<polyline fill="#ADA29F" points="362.013,167.391 361,169 361.301,168.707 362.013,167.391 		"/>
		<polyline fill="#77635F" points="403.919,114.579 384.061,132.374 373.504,149.14 392.754,138.14 399.975,131.123 
			403.919,114.579 		"/>
		<polyline fill="#78635E" points="423.583,103.412 410.43,108.744 403.919,114.579 399.975,131.123 420.141,111.525 
			423.583,103.412 		"/>
		<path fill="#444B50" d="M133.437,315.745l-2.038,1.876l-1.373,24.243l1.042-5.319L133.437,315.745 M134,274l-0.341,3.687
			l-0.595,10.505l1.412-2.755L134,274"/>
		<polyline fill="#243137" points="135.52,313.828 133.437,315.745 131.069,336.545 135.52,313.828 		"/>
		<polyline fill="#262A2D" points="134.477,285.436 133.064,288.191 131.399,317.621 133.437,315.745 135.123,300.94 
			134.477,285.436 		"/>
		<polyline fill="#161C21" points="135.123,300.94 133.437,315.745 135.52,313.828 135.635,313.241 135.123,300.94 		"/>
		<path fill="#444B50" d="M126.654,353.471L123,393l1.989-3.049l3.555-31.223L126.654,353.471 M130.669,340.059l-0.646,1.875
			l-0.428,7.559L130.669,340.059"/>
		<polyline fill="#243137" points="136.096,324.31 130.669,340.059 129.595,349.493 129,360 128.543,358.728 124.989,389.951 
			138,370 136.096,324.31 		"/>
		<path fill="#373E44" d="M131.399,317.621l-1.564,1.44l-3.181,34.41l1.89,5.257l1.051-9.235l0.428-7.559L130,342l0.026-0.136
			L131.399,317.621 M133.659,277.686l-1.054,11.4l0.459-0.896L133.659,277.686"/>
		<polyline fill="#273137" points="129.595,349.493 128.543,358.728 129,360 129.595,349.493 		"/>
		<polyline fill="#272D33" points="133.064,288.191 132.605,289.087 129.835,319.061 131.399,317.621 133.064,288.191 		"/>
		<polyline fill="#9CAFB8" points="230.303,155.786 233.254,159.835 235.484,159.194 230.303,155.786 		"/>
		<polyline fill="#9CAFB8" points="229,154 230.303,155.786 235.484,159.194 238.009,158.469 229,154 		"/>
		<polyline fill="#9CAFB8" points="242.417,165.556 240.03,167.165 242.146,168.898 242.417,165.556 		"/>
		<polyline fill="#5C7D87" points="240.03,167.165 239.07,167.813 240.869,170.279 242.094,169.544 242.146,168.898 240.03,167.165 
					"/>
		<polyline fill="#5E7781" points="243.771,164.643 242.417,165.556 242.146,168.898 242.579,169.252 246.868,166.679 
			243.771,164.643 		"/>
		<polyline fill="#3F5D6A" points="242.146,168.898 242.094,169.544 242.579,169.252 242.146,168.898 		"/>
		<polyline fill="#9CAFB8" points="342.428,210.26 341.468,213.042 345.188,211.629 342.428,210.26 		"/>
		<path fill="#5E7781" d="M321.097,199.679l12.881,16.209l7.49-2.848l0.96-2.781L321.097,199.679 M273.164,187.133l-4.118,3.791
			l2.313,1.895L273.164,187.133"/>
		<polyline fill="#3F5D6A" points="269.046,190.924 261.191,198.154 267.096,206.251 271.359,192.818 269.046,190.924 		"/>
		<path fill="#496A77" d="M281.091,179.837l-7.927,7.296l-1.805,5.686l39.094,32.01l23.523-8.938l-12.881-16.209L281.091,179.837
			 M276.799,177.708l-1.094,1.425l3.805-0.08L276.799,177.708"/>
		<polyline fill="#395D6A" points="271.359,192.818 267.096,206.251 287.105,233.699 310.453,224.827 271.359,192.818 		"/>
		<polyline fill="#3F5562" points="275.702,179.138 267.581,189.724 269.046,190.924 273.164,187.133 275.702,179.138 		"/>
		<polyline fill="#2F4856" points="267.581,189.724 262,197 255.141,189.854 261.191,198.154 269.046,190.924 267.581,189.724 		"/>
		<polyline fill="#354F5C" points="279.51,179.053 275.705,179.135 275.702,179.138 273.164,187.133 281.091,179.837 
			279.51,179.053 		"/>
		<polyline fill="#688692" points="351.271,242.751 348.19,255.726 361.017,266.228 362.045,265.32 359.898,252.162 
			351.271,242.751 		"/>
		<path fill="#486C79" d="M320.055,275.139l-0.878,2.548l11.303,15.502l9.022-7.966L320.055,275.139 M348.19,255.726l-6.561,27.618
			l19.386-17.116L348.19,255.726"/>
		<polyline fill="#395D6A" points="315.655,272.858 319.177,277.688 320.055,275.139 315.655,272.858 		"/>
		<polyline fill="#6A8490" points="345.188,211.629 341.468,213.042 338.517,221.6 348.144,233.714 355.141,222.992 354,216 
			345.188,211.629 		"/>
		<polyline fill="#4B6775" points="341.468,213.042 333.978,215.888 338.517,221.6 341.468,213.042 		"/>
		<polyline fill="#506F7D" points="338.517,221.6 331.471,242.036 348.19,255.726 351.271,242.751 346,237 348.144,233.714 
			338.517,221.6 		"/>
		<polyline fill="#406371" points="331.471,242.036 320.055,275.139 339.502,285.223 341.631,283.344 348.19,255.726 
			331.471,242.036 		"/>
		<polyline fill="#416170" points="333.978,215.888 310.453,224.827 331.471,242.036 338.517,221.6 333.978,215.888 		"/>
		<polyline fill="#395B69" points="310.453,224.827 287.105,233.699 315.655,272.858 320.055,275.139 331.471,242.036 
			310.453,224.827 		"/>
		<polyline fill="#7D939D" points="246.604,162.732 243.771,164.643 246.868,166.679 250.351,164.59 246.604,162.732 		"/>
		<polyline fill="#506B79" points="242.094,169.544 240.869,170.279 241.918,171.719 242.094,169.544 		"/>
		<polyline fill="#516776" points="246.868,166.679 242.579,169.252 255.182,179.571 275.703,179.135 276.243,177.432 
			261.739,170.239 258,174 246.868,166.679 		"/>
		<polyline fill="#425A6A" points="242.579,169.252 242.094,169.544 241.918,171.719 247.758,179.728 255.182,179.571 
			242.579,169.252 		"/>
		<polyline fill="#476171" points="276.243,177.432 275.703,179.135 275.705,179.135 276.799,177.708 276.243,177.432 		"/>
		<polyline fill="#425767" points="275.703,179.135 255.182,179.571 267.581,189.724 275.702,179.138 275.703,179.135 		"/>
		<polyline fill="#3A5060" points="255.182,179.571 247.758,179.728 255.141,189.854 262,197 267.581,189.724 255.182,179.571 		"/>
		<polyline fill="#3C5363" points="275.705,179.135 275.703,179.135 275.702,179.138 275.705,179.135 		"/>
		<polyline fill="#617684" points="250.351,164.59 246.868,166.679 258,174 261.739,170.239 250.351,164.59 		"/>
		<polyline fill="#9CAFB8" points="355.476,225.048 352.204,238.823 359.148,247.561 355.476,225.048 		"/>
		<polyline fill="#829AA5" points="352.204,238.823 351.271,242.751 359.898,252.162 359.148,247.561 352.204,238.823 		"/>
		<polyline fill="#8299A5" points="355.141,222.992 348.144,233.714 352.204,238.823 355.476,225.048 355.141,222.992 		"/>
		<polyline fill="#778F9B" points="348.144,233.714 346,237 351.271,242.751 352.204,238.823 348.144,233.714 		"/>
		<polyline fill="#5C7D87" points="353.224,318.661 351.878,322.541 354.756,326.489 357.71,320.58 353.224,318.661 		"/>
		<polyline fill="#7B969F" points="361.516,312.969 354.699,314.408 353.224,318.661 357.71,320.58 361.516,312.969 		"/>
		<polyline fill="#587986" points="365.142,284.303 354.699,314.408 361.516,312.969 367.775,300.449 365.142,284.303 		"/>
		<polyline fill="#858181" points="253.691,503.926 252.206,505.099 252.667,505.366 253.619,504.613 253.691,503.926 		"/>
		<path fill="#444F50" d="M218.11,465.771l-3.764,17.429l2.248,1.3L218.11,465.771 M254.598,464.967l-11.936,34.612l9.544,5.521
			l1.485-1.175l2.045-19.034L254.598,464.967"/>
		<polyline fill="#273031" points="247.291,337.083 245.836,337.39 218.11,465.771 216.594,484.5 242.662,499.579 254.598,464.967 
			247.291,337.083 		"/>
		<polyline fill="#47585D" points="253.619,504.613 252.667,505.366 253.486,505.842 253.619,504.613 		"/>
		<polyline fill="#5C6E6F" points="256.689,501.555 253.691,503.926 253.619,504.613 256.725,502.16 256.689,501.555 		"/>
		<polyline fill="#3B5557" points="255.736,484.89 253.691,503.926 256.689,501.555 255.736,484.89 		"/>
		<polyline fill="#3D5A5D" points="256.725,502.16 253.619,504.613 253.486,505.842 256.307,507.47 257,507 256.725,502.16 		"/>
		<polyline fill="#232F33" points="247,332 245.836,337.39 247.291,337.083 247,332 		"/>
		<path fill="#4B5053" d="M212.377,536.586l-6.21,4.908l5.536-3.757l0.621-0.49L212.377,536.586 M252.206,505.099l-15.737,12.439
			l-0.296,0.86l16.495-13.034L252.206,505.099"/>
		<path fill="#2B373A" d="M242.662,499.579l-6.193,17.962l15.737-12.44L242.662,499.579 M214.346,483.2l-12.433,57.572l2.72,1.762
			l1.534-1.04l6.21-4.908l4.217-52.085L214.346,483.2"/>
		<polyline fill="#2C3437" points="236.469,517.54 212.377,536.586 212.324,537.247 236.172,518.4 236.469,517.54 		"/>
		<polyline fill="#1C272B" points="216.594,484.5 212.377,536.586 236.469,517.54 242.662,499.579 216.594,484.5 		"/>
		<path fill="#2C3B40" d="M212.324,537.247l-0.621,0.49l0.614-0.417L212.324,537.247 M252.667,505.366L236.172,518.4l-1.23,3.567
			l18.134-12.307l0.41-3.82L252.667,505.366"/>
		<polyline fill="#1D2D33" points="236.172,518.4 212.324,537.247 212.317,537.32 234.942,521.969 236.172,518.4 		"/>
		<polyline fill="#3A4447" points="201.913,540.772 201,545 204.633,542.534 201.913,540.772 		"/>
		<polyline fill="#273C41" points="253.486,505.842 253.076,509.662 256.307,507.47 253.486,505.842 		"/>
		<polyline fill="#948994" points="103.165,290.015 97.148,297.129 102.45,293.791 103,293 102.858,293.533 107.78,290.434 
			103.165,290.015 		"/>
		<polyline fill="#534954" points="103,293 102.45,293.791 102.858,293.533 103,293 		"/>
		<polyline fill="#938994" points="103,290 96.961,297.247 97.148,297.129 103.165,290.015 103,290 		"/>
		<polyline fill="#66606F" points="118.436,291.403 118.666,295.318 125,292 118.436,291.403 		"/>
		<path fill="#948994" d="M97.435,301h-3.561l-2.797,3.309L83,314l8.482-4.442L97.435,301 M107.797,301h-6.923l-1.124,4.227
			l8.05-4.217L107.797,301"/>
		<polyline fill="#534954" points="100.874,301 97.435,301 91.482,309.557 99.75,305.226 100.874,301 		"/>
		<polyline fill="#938994" points="93.874,301 93.833,301 91.077,304.308 93.874,301 		"/>
		<polyline fill="#66606F" points="107.818,301 107.797,301 107.8,301.01 107.818,301 		"/>
		<polyline fill="#8B979C" points="191,165 179.727,175.217 188.331,172.744 191,165 		"/>
		<polyline fill="#6B7E84" points="177.369,188.181 157.338,202.479 145.173,264.564 177.757,200.986 177.369,188.181 		"/>
		<polyline fill="#4B6169" points="141.655,308.181 135.654,313.704 136.096,324.31 141.655,308.181 		"/>
		<polyline fill="#8B979C" points="177.05,177.642 161.991,191.289 158.17,198.237 157.338,202.479 177.369,188.181 177.05,177.642 
					"/>
		<polyline fill="#4E5A61" points="177.757,200.986 145.173,264.564 140.994,285.894 143.571,302.621 177.825,203.229 
			177.757,200.986 		"/>
		<polyline fill="#3D4B53" points="140.994,285.894 135.635,313.241 135.654,313.704 141.655,308.181 143.571,302.621 
			140.994,285.894 		"/>
		<polyline fill="#4E575D" points="131.069,336.545 130.026,341.864 130.022,341.934 130.669,340.059 131.069,336.545 		"/>
		<polyline fill="#3E4A51" points="135.654,313.704 135.52,313.828 131.069,336.545 130.669,340.059 136.096,324.31 
			135.654,313.704 		"/>
		<polyline fill="#373F46" points="135.635,313.241 135.52,313.828 135.654,313.704 135.635,313.241 		"/>
		<polyline fill="#475057" points="130.026,341.864 130,342 130.022,341.934 130.026,341.864 		"/>
		<polyline fill="#9696A3" points="257.734,152.802 243.109,157.003 242.798,160.844 246.604,162.732 259.809,153.827 
			257.734,152.802 		"/>
		<polyline fill="#74818D" points="231.643,160.298 220.406,163.527 221.79,166.624 231.678,172.799 239.07,167.813 
			236.479,164.257 231.643,160.298 		"/>
		<polyline fill="#5E606E" points="220.406,163.527 217.957,164.231 221.79,166.624 220.406,163.527 		"/>
		<path fill="#74818D" d="M223.317,170.043l2.882,6.45l5.388-3.634L223.317,170.043 M206.219,167.603l-0.038,0.011l-21.33,15.225
			l-4.527,13.138L188,181l25.264-0.538L206.219,167.603"/>
		<polyline fill="#959AA5" points="206.182,167.615 188.331,172.744 184.852,182.84 206.182,167.615 		"/>
		<polyline fill="#5E606E" points="211.606,166.055 206.219,167.603 213.264,180.462 220.544,180.307 226.199,176.493 
			223.317,170.043 211.606,166.055 		"/>
		<polyline fill="#565C6B" points="213.264,180.462 188,181 180.324,195.977 177.825,203.229 178,209 215.166,183.934 
			213.264,180.462 		"/>
		<polyline fill="#4B4C5A" points="220.544,180.307 213.264,180.462 215.166,183.934 220.544,180.307 		"/>
		<polyline fill="#959AA5" points="221.79,166.624 223.317,170.043 231.587,172.859 231.678,172.799 221.79,166.624 		"/>
		<polyline fill="#898A97" points="217.957,164.231 211.606,166.055 223.317,170.043 221.79,166.624 217.957,164.231 		"/>
		<polyline fill="#838B9B" points="235.484,159.194 233.254,159.835 236.479,164.257 240.03,167.165 242.417,165.556 
			242.555,163.844 235.484,159.194 		"/>
		<polyline fill="#647282" points="236.479,164.257 239.07,167.813 240.03,167.165 236.479,164.257 		"/>
		<polyline fill="#646F80" points="242.555,163.844 242.417,165.556 243.771,164.643 242.555,163.844 		"/>
		<polyline fill="#838B9B" points="238.009,158.469 235.484,159.194 242.555,163.844 242.798,160.844 238.009,158.469 		"/>
		<polyline fill="#747D8D" points="242.798,160.844 242.555,163.844 243.771,164.643 246.604,162.732 242.798,160.844 		"/>
		<polyline fill="#959AA5" points="179.727,175.217 177,176 177.05,177.642 179.727,175.217 		"/>
		<polyline fill="#6B7281" points="184.852,182.84 177.369,188.181 177.757,200.986 180.324,195.977 184.852,182.84 		"/>
		<polyline fill="#7A7F8C" points="188.331,172.744 179.727,175.217 177.05,177.642 177.369,188.181 184.852,182.84 
			188.331,172.744 		"/>
		<polyline fill="#5C616F" points="180.324,195.977 177.757,200.986 177.825,203.229 180.324,195.977 		"/>
		<polyline fill="#93807F" points="436.989,359.027 430.691,364.006 456.203,378.629 457,377 457.346,379.283 490,398 
			483.644,387.156 464.959,366.773 436.989,359.027 		"/>
		<polyline fill="#534E4E" points="417.509,353.633 416.366,354.331 417.356,356.362 430.691,364.006 436.989,359.027 
			417.509,353.633 		"/>
		<polyline fill="#726766" points="408,351 411.147,352.803 410.947,351.816 408,351 		"/>
		<polyline fill="#726766" points="416.366,354.331 415.131,355.087 417.356,356.362 416.366,354.331 		"/>
		<polyline fill="#352727" points="415.795,353.158 416.366,354.331 417.509,353.633 415.795,353.158 		"/>
		<polyline fill="#463333" points="410.947,351.816 411.147,352.803 415.131,355.087 416.366,354.331 415.795,353.158 
			410.947,351.816 		"/>
		<polyline fill="#93807F" points="457,377 456.203,378.629 457.346,379.283 457,377 		"/>
		<polyline fill="#93807F" points="464.959,366.773 483.644,387.156 473.689,370.177 467.15,367.38 464.959,366.773 		"/>
		<polyline fill="#92807F" points="467.15,367.38 473.689,370.177 473,369 467.15,367.38 		"/>
		<polyline fill="#7AAFB4" points="367.525,260.482 362.045,265.32 362.375,267.34 366.659,270.848 368.799,261.872 
			367.525,260.482 		"/>
		<polyline fill="#5A969C" points="362.375,267.34 364.408,279.808 364.635,279.338 366.659,270.848 362.375,267.34 		"/>
		<polyline fill="#7AAFB3" points="370.85,267.846 368.62,272.454 369.112,272.857 370.85,267.846 		"/>
		<path fill="#6AA3A7" d="M364.635,279.338l-0.227,0.472l0.047,0.284L364.635,279.338 M368.62,272.454l-4.047,8.362l0.567,3.487
			l3.972-11.446L368.62,272.454"/>
		<polyline fill="#94C3C7" points="368.799,261.872 366.659,270.848 368.137,272.058 371.578,264.903 368.799,261.872 		"/>
		<polyline fill="#84B7BA" points="366.659,270.848 364.635,279.338 368.137,272.058 366.659,270.848 		"/>
		<polyline fill="#94C4C7" points="371.578,264.903 368.137,272.058 368.62,272.454 370.85,267.846 371.791,265.135 
			371.578,264.903 		"/>
		<polyline fill="#8BBEC1" points="368.137,272.058 364.635,279.338 364.455,280.094 364.573,280.816 368.62,272.454 
			368.137,272.058 		"/>
		<polyline fill="#ADD9DA" points="369.559,258.687 368.637,259.501 369.196,260.205 369.559,258.687 		"/>
		<polyline fill="#94C3C7" points="368.637,259.501 367.525,260.482 368.799,261.872 369.196,260.205 368.637,259.501 		"/>
		<polyline fill="#ADD8DA" points="376,253 369.559,258.687 369.196,260.205 372.088,263.844 372.629,262.719 376,253 		"/>
		<polyline fill="#ADD8DA" points="372.629,262.719 372.088,263.844 372.192,263.976 372.629,262.719 		"/>
		<polyline fill="#A1CED0" points="369.196,260.205 368.799,261.872 371.578,264.903 372.088,263.844 369.196,260.205 		"/>
		<polyline fill="#A1CED0" points="372.088,263.844 371.578,264.903 371.791,265.135 372.192,263.976 372.088,263.844 		"/>
		<polyline fill="#ADD8DA" points="270.229,557.925 265,558.162 265,573 270.229,557.925 		"/>
		<polyline fill="#6DA6A9" points="347.052,316.022 324.515,320.78 340.416,355.168 340.888,354.224 351.878,322.541 
			347.157,316.067 347.052,316.022 		"/>
		<polyline fill="#50878B" points="270.648,346.011 265,351 265,398.625 270.648,346.011 		"/>
		<path fill="#70AFB6" d="M272.807,550.497L265,552.033v6.129l5.229-0.237L272.807,550.497 M282.52,522.492l-0.18,0.038l0.139,0.08
			L282.52,522.492"/>
		<polyline fill="#84C6C9" points="302.285,465.512 275.688,486.538 274,488 274.105,487.787 265,494.986 265,495.619 
			301.978,466.398 302.285,465.512 		"/>
		<path fill="#64ACB1" d="M303.29,462.615l-27.603,23.923l26.598-21.024L303.29,462.615 M324.515,320.78l-21.782,4.599L265,434.801
			v60.187l9.105-7.199l66.311-132.619L324.515,320.78"/>
		<polyline fill="#569DA1" points="302.731,325.379 291.282,327.796 270.648,346.011 265,398.625 265,434.801 302.731,325.379 		"/>
		<polyline fill="#65B1B7" points="301.978,466.398 265,495.619 265,512.5 282.34,522.53 282.52,522.492 301.978,466.398 		"/>
		<polyline fill="#8DBFC2" points="347.115,316.01 347.052,316.022 347.157,316.067 347.115,316.01 		"/>
		<polyline fill="#5A969C" points="330.479,293.19 317.185,304.927 324.515,320.78 347.052,316.022 347,316 347.043,315.91 
			330.479,293.19 		"/>
		<polyline fill="#56999F" points="317.185,304.927 306.544,314.321 302.731,325.379 324.515,320.78 317.185,304.927 		"/>
		<polyline fill="#4E9198" points="306.544,314.321 291.282,327.796 302.731,325.379 306.544,314.321 		"/>
		<polyline fill="#6AA3A7" points="347.043,315.91 347,316 347.052,316.022 347.115,316.01 347.043,315.91 		"/>
		<polyline fill="#55939A" points="282.34,522.53 265,526.109 265,552.033 272.807,550.497 282.479,522.61 282.34,522.53 		"/>
		<polyline fill="#50949A" points="265,512.5 265,526.109 282.34,522.53 265,512.5 		"/>
		<polyline fill="#5C979E" points="347.157,316.067 351.878,322.541 353.224,318.661 347.157,316.067 		"/>
		<polyline fill="#6BA4AA" points="354.699,314.408 347.115,316.01 347.157,316.067 353.224,318.661 354.699,314.408 		"/>
		<polyline fill="#629CA4" points="362.045,265.32 361.017,266.228 362.375,267.34 362.045,265.32 		"/>
		<polyline fill="#528F97" points="361.017,266.228 341.631,283.344 341,286 339.502,285.223 330.479,293.19 347.043,315.91 
			364.408,279.808 362.375,267.34 361.017,266.228 		"/>
		<polyline fill="#5A969D" points="364.408,279.808 347.043,315.91 347.115,316.01 354.699,314.408 365.142,284.303 
			364.573,280.816 364,282 364.455,280.094 364.408,279.808 		"/>
		<polyline fill="#6BA3AA" points="364.455,280.094 364,282 364.573,280.816 364.455,280.094 		"/>
		<polyline fill="#4E8A93" points="341.631,283.344 339.502,285.223 341,286 341.631,283.344 		"/>
		<polyline fill="#A08F89" points="44.212,388.516 42.728,389.688 43.219,390.64 43.969,390.218 44.212,388.516 		"/>
		<path fill="#654F49" d="M45.542,379.206l-5.906,4.5l3.091,5.982l1.484-1.172L45.542,379.206 M47,369l-12.764,4.255l3.548,6.866
			l8.179-3.857L47,369"/>
		<polyline fill="#4E342E" points="45.962,376.262 37.784,380.121 39.636,383.706 45.542,379.206 45.962,376.262 		"/>
		<path fill="#A08F89" d="M42.728,389.688l-3.934,3.104l0.218,0.219l4.208-2.371L42.728,389.688 M28.49,378.312l-1.915,2.264
			l3.283,3.283l0.93-0.439L28.49,378.312"/>
		<path fill="#826E69" d="M39.636,383.706L34,388l4.794,4.794l3.934-3.104L39.636,383.706 M34.236,373.255l-2.045,0.683
			l-3.701,4.376l2.299,5.106l6.995-3.299L34.236,373.255"/>
		<polyline fill="#A08F88" points="27.73,376.622 24.59,378.59 26.576,380.576 28.49,378.312 27.73,376.622 		"/>
		<polyline fill="#917F78" points="32.191,373.936 31.818,374.06 27.73,376.622 28.49,378.312 32.191,373.936 		"/>
		<polyline fill="#86726B" points="30.789,383.42 29.859,383.859 31.909,385.909 30.789,383.42 		"/>
		<polyline fill="#77615B" points="37.784,380.121 30.789,383.42 31.909,385.909 34,388 39.636,383.706 37.784,380.121 		"/>
		<polyline fill="#A08F89" points="43.969,390.218 43.219,390.64 43.759,391.685 43.969,390.218 		"/>
		<polyline fill="#A08F88" points="43.219,390.64 39.012,393.011 43,397 43.759,391.685 43.219,390.64 		"/>
		<polyline fill="#A08F88" points="27.261,375.58 24.181,376.606 23.442,377.442 24.59,378.59 27.73,376.622 27.261,375.58 		"/>
		<polyline fill="#988681" points="31.818,374.06 27.261,375.58 27.73,376.622 31.818,374.06 		"/>
		<polyline fill="#A08E88" points="24.181,376.606 23,377 23.442,377.442 24.181,376.606 		"/>
		<polyline fill="#A09BA1" points="111.429,288.137 107.78,290.434 109.721,290.611 111.429,288.137 		"/>
		<path fill="#72727C" d="M118.666,295.318L107.818,301h2.848l3.333-3l-0.403,3H119L118.666,295.318 M118,284l-6.571,4.138
			l-1.708,2.474l8.714,0.792L118,284"/>
		<polyline fill="#89868F" points="114,298 110.667,301 113.597,301 114,298 		"/>
		<polyline fill="#9F9BA1" points="96.961,297.247 91,301 93.833,301 96.961,297.247 		"/>
		<path fill="#6A5F6B" d="M102.45,293.791l-5.302,3.338L93.874,301h3.561L102.45,293.791 M107.78,290.434l-4.922,3.099L100.874,301
			h6.923L106,296l3.721-5.389L107.78,290.434"/>
		<polyline fill="#4A404C" points="102.858,293.533 102.45,293.791 97.435,301 100.874,301 102.858,293.533 		"/>
		<polyline fill="#6A5F6B" points="97.148,297.129 96.961,297.247 93.833,301 93.874,301 97.148,297.129 		"/>
		<polyline fill="#534B59" points="109.721,290.611 106,296 107.797,301 107.818,301 118.666,295.318 118.436,291.403 
			109.721,290.611 		"/>
		<path fill="#699CA6" d="M372.061,326.718l0.799,4.896l15.597,9.616l-1.029-7.941L372.061,326.718 M354.756,326.489l-13.868,27.736
			l-0.389,1.122l24.765,53.558l25.294-21.921l-14.649-36.682L377,357L354.756,326.489"/>
		<polyline fill="#60A3AE" points="340.499,355.346 303.29,462.615 365.264,408.904 340.499,355.346 		"/>
		<polyline fill="#89B5BF" points="384.172,308.186 369.541,311.274 372.061,326.718 387.426,333.287 384.172,308.186 		"/>
		<polyline fill="#76A5B2" points="380,276 377.952,280.095 380.837,282.457 380,276 		"/>
		<polyline fill="#6698A5" points="377.952,280.095 367.775,300.449 369.541,311.274 384.172,308.186 380.837,282.457 
			377.952,280.095 		"/>
		<polyline fill="#89B5BF" points="372.858,331.612 375.907,350.302 390.558,386.983 391.122,386.494 388.821,344.048 
			388.455,341.228 372.858,331.612 		"/>
		<polyline fill="#99C2CB" points="388.821,344.048 391.122,386.494 394,384 388.821,344.048 		"/>
		<polyline fill="#578E9C" points="357.71,320.58 354.756,326.489 377,357 375.907,350.302 367,328 372.858,331.612 
			372.061,326.718 357.71,320.58 		"/>
		<polyline fill="#6799A7" points="369.541,311.274 361.516,312.969 357.71,320.58 372.061,326.718 369.541,311.274 		"/>
		<polyline fill="#568B9B" points="367.775,300.449 361.516,312.969 369.541,311.274 367.775,300.449 		"/>
		<polyline fill="#6799A7" points="367,328 375.907,350.302 372.858,331.612 367,328 		"/>
		<polyline fill="#60A2AC" points="340.888,354.224 340.416,355.168 340.499,355.346 340.888,354.224 		"/>
		<polyline fill="#6BB2BC" points="275.688,486.538 274.105,487.787 274,488 275.688,486.538 		"/>
		<polyline fill="#5CA5B0" points="340.416,355.168 274.105,487.787 275.688,486.538 303.29,462.615 340.499,355.346 
			340.416,355.168 		"/>
	</g>
</g>
</svg>
