<?xml version="1.0" encoding="utf-8"?>
<!-- Generator: Adobe Illustrator 16.0.0, SVG Export Plug-In . SVG Version: 6.00 Build 0)  -->
<!DOCTYPE svg PUBLIC "-//W3C//DTD SVG 1.1//EN" "http://www.w3.org/Graphics/SVG/1.1/DTD/svg11.dtd">
<svg version="1.1" id="Layer_1" xmlns="http://www.w3.org/2000/svg" xmlns:xlink="http://www.w3.org/1999/xlink" x="0px" y="0px"
	 width="500px" height="661px" viewBox="0 0 500 661" enable-background="new 0 0 500 661" xml:space="preserve">
<rect y="0" display="none" fill="#C2CDCF" width="499" height="660"/>
<polygon fill="#00373C" fill-opacity="0.502" points="456,344 98,627 158,100 "/>
<polygon fill="#030000" fill-opacity="0.502" points="369,141 357,220 375,180 "/>
<polygon fill="#310D00" fill-opacity="0.502" points="133,200 55,108 125,158 "/>
<polygon fill="#0A1D25" fill-opacity="0.502" points="347,197 207,603 244,146 "/>
<polygon fill="#0B5B71" fill-opacity="0.502" points="386,400 181,562 378,553 "/>
<polygon fill="#FFFDFB" fill-opacity="0.502" points="324,566 371,483 499,392 "/>
<polygon fill="#002433" fill-opacity="0.502" points="182,552 105,386 135,247 "/>
<polygon fill="#FFFFFF" fill-opacity="0.502" points="441,0 144,212 39,0 "/>
<polygon fill="#260000" fill-opacity="0.502" points="341,563 411,634 350,540 "/>
<polygon fill="#FFFFFF" fill-opacity="0.502" points="0,410 0,660 386,660 "/>
<polygon fill="#5BB5BB" fill-opacity="0.502" points="251,529 283,231 406,497 "/>
<polygon fill-opacity="0.502" points="71,339 82,372 103,293 "/>
<polygon fill="#241821" fill-opacity="0.502" points="190,138 209,138 293,326 "/>
<polygon fill="#FFFFFF" fill-opacity="0.502" points="347,316 499,381 499,0 "/>
<polygon fill="#2B0000" fill-opacity="0.502" points="387,452 400,499 374,473 "/>
<polygon fill="#B7FFFF" fill-opacity="0.502" points="199,260 182,394 248,295 "/>
<polygon fill="#335A67" fill-opacity="0.502" points="404,304 224,342 284,153 "/>
<polygon fill="#FFFFFF" fill-opacity="0.502" points="499,0 363,281 430,0 "/>
<polygon fill="#193C48" fill-opacity="0.502" points="112,424 194,566 316,542 "/>
<polygon fill="#070A12" fill-opacity="0.502" points="106,341 282,179 188,181 "/>
<polygon fill="#FFFFFF" fill-opacity="0.502" points="405,660 499,525 385,291 "/>
<polygon fill="#110000" fill-opacity="0.502" points="93,350 36,395 27,375 "/>
<polygon fill="#0F070C" fill-opacity="0.502" points="429,21 308,138 422,3 "/>
<polygon fill="#49281F" fill-opacity="0.502" points="86,147 51,111 90,125 "/>
<polygon fill="#FFFFFF" fill-opacity="0.502" points="148,237 0,0 0,412 "/>
<polygon fill="#110000" fill-opacity="0.502" points="87,481 148,579 158,553 "/>
<polygon fill-opacity="0.502" points="55,43 212,156 48,58 "/>
<polygon fill="#1D0A00" fill-opacity="0.502" points="74,140 102,155 58,104 "/>
<polygon fill="#301715" fill-opacity="0.502" points="2,397 13,404 55,372 "/>
<polygon fill="#FFFFFF" fill-opacity="0.502" points="345,196 291,155 451,0 "/>
<polygon fill="#150000" fill-opacity="0.502" points="368,555 339,558 402,482 "/>
<polygon fill="#FFFFFF" fill-opacity="0.502" points="366,327 499,409 499,660 "/>
<polygon fill="#0B0000" fill-opacity="0.502" points="430,346 399,293 412,357 "/>
<polygon fill="#FFFFFF" fill-opacity="0.502" points="499,660 317,660 456,376 "/>
<polygon fill="#290100" fill-opacity="0.502" points="414,126 351,162 428,93 "/>
<polygon fill="#FFFFFF" fill-opacity="0.502" points="111,500 206,611 123,479 "/>
<polygon fill="#FFFFFF" fill-opacity="0.502" points="139,576 0,660 0,307 "/>
<polygon fill="#FFFFFF" fill-opacity="0.502" points="94,580 0,415 110,353 "/>
<polygon fill="#160310" fill-opacity="0.502" points="99,476 108,520 120,444 "/>
<polygon fill="#31221B" fill-opacity="0.502" points="336,532 413,627 379,612 "/>
<polygon fill="#FFFFFF" fill-opacity="0.502" points="0,660 418,660 336,553 "/>
<polygon fill="#FFFFFF" fill-opacity="0.502" points="0,111 106,0 0,0 "/>
<polygon fill="#4A5D6B" fill-opacity="0.502" points="135,254 129,360 106,296 "/>
<polygon fill="#30120D" fill-opacity="0.502" points="115,601 159,551 116,645 "/>
<polygon fill="#395160" fill-opacity="0.502" points="360,206 260,244 341,286 "/>
<polygon fill="#FFFFFF" fill-opacity="0.502" points="257,173 0,4 429,0 "/>
<polygon fill="#525066" fill-opacity="0.502" points="238,172 318,124 262,197 "/>
<polygon fill="#9FF4E4" fill-opacity="0.502" points="208,266 197,421 237,366 "/>
<polygon fill="#FFFFFF" fill-opacity="0.502" points="11,35 0,94 232,173 "/>
<polygon fill="#63B1DC" fill-opacity="0.502" points="185,245 226,219 249,246 "/>
<polygon fill="#FFFFFF" fill-opacity="0.502" points="499,404 345,236 499,0 "/>
<polygon fill="#FFFFFF" fill-opacity="0.502" points="94,316 114,298 87,499 "/>
<polygon fill="#FFFFFF" fill-opacity="0.502" points="0,136 116,159 68,363 "/>
<polygon fill="#282929" fill-opacity="0.502" points="49,44 179,134 45,55 "/>
<polygon fill="#120000" fill-opacity="0.502" points="126,477 104,492 117,453 "/>
<polygon fill="#0B040C" fill-opacity="0.502" points="217,258 255,286 253,236 "/>
<polygon fill="#5C473F" fill-opacity="0.502" points="432,100 395,115 361,169 "/>
<polygon fill="#FFFFFF" fill-opacity="0.502" points="143,242 0,404 0,38 "/>
<polygon fill="#0A0607" fill-opacity="0.502" points="138,370 123,393 134,274 "/>
<polygon fill="#396072" fill-opacity="0.502" points="354,216 377,357 229,154 "/>
<polygon fill="#FFFFFF" fill-opacity="0.502" points="75,347 0,0 0,394 "/>
<polygon fill="#0B0403" fill-opacity="0.502" points="247,332 201,545 257,507 "/>
<polygon fill="#29132A" fill-opacity="0.502" points="103,290 83,314 125,292 "/>
<polygon fill="#58636B" fill-opacity="0.502" points="159,194 191,165 130,342 "/>
<polygon fill="#6B687E" fill-opacity="0.502" points="177,176 178,209 264,151 "/>
<polygon fill="#FFFFFF" fill-opacity="0.502" points="144,566 0,434 69,660 "/>
<polygon fill="#270200" fill-opacity="0.502" points="473,369 408,351 490,398 "/>
<polygon fill="#5CB2B5" fill-opacity="0.502" points="265,573 265,351 376,253 "/>
<polygon fill="#421F13" fill-opacity="0.502" points="43,397 47,369 23,377 "/>
<polygon fill="#413744" fill-opacity="0.502" points="118,284 91,301 119,301 "/>
<polygon fill="#FFFFFF" fill-opacity="0.502" points="188,144 115,98 144,224 "/>
<polygon fill="#549EB0" fill-opacity="0.502" points="380,276 394,384 274,488 "/>
</svg>
